<svg xmlns="http://www.w3.org/2000/svg" viewBox="0 0 980 382" role="img">
<style>
.axis{stroke:#718096;stroke-width:1}.grid{stroke:#e5eaf0;stroke-width:1}.label{font:12px sans-serif;fill:#5a6675}.title{font:700 18px sans-serif;fill:#20242a}.subtitle{font:12px sans-serif;fill:#5a6675}.panel-title{font:700 13px sans-serif;fill:#20242a}
</style>
<rect width="980" height="382" fill="#ffffff"/>
<text class="title" x="70" y="28">Pitch large angle movement: 28.88 deg to 0.00 deg (28.88 deg move).</text>
<text class="subtitle" x="70" y="50">Arrival 268 ms; settling 328 ms; trajectory lag 85 ms.</text>
<line x1="70" y1="76" x2="94" y2="76" stroke="#48525f" stroke-width="2" stroke-dasharray="6 4"/>
<text class="label" x="100" y="80">commanded target</text>
<line x1="236" y1="76" x2="260" y2="76" stroke="#1769aa" stroke-width="2"/>
<text class="label" x="266" y="80">actual current</text>
<text class="panel-title" x="70" y="96">Pitch position</text>
<line class="grid" x1="70" y1="338.00" x2="956" y2="338.00"/>
<text class="label" x="62" y="342.00" text-anchor="end">-3.5</text>
<line class="grid" x1="70" y1="280.50" x2="956" y2="280.50"/>
<text class="label" x="62" y="284.50" text-anchor="end">5.5</text>
<line class="grid" x1="70" y1="223.00" x2="956" y2="223.00"/>
<text class="label" x="62" y="227.00" text-anchor="end">14.5</text>
<line class="grid" x1="70" y1="165.50" x2="956" y2="165.50"/>
<text class="label" x="62" y="169.50" text-anchor="end">23.5</text>
<line class="grid" x1="70" y1="108.00" x2="956" y2="108.00"/>
<text class="label" x="62" y="112.00" text-anchor="end">32.5</text>
<line class="grid" x1="70.00" y1="108" x2="70.00" y2="338"/>
<text class="label" x="70.00" y="358" text-anchor="middle">-0.39</text>
<line class="grid" x1="217.67" y1="108" x2="217.67" y2="338"/>
<text class="label" x="217.67" y="358" text-anchor="middle">-0.11</text>
<line class="grid" x1="365.33" y1="108" x2="365.33" y2="338"/>
<text class="label" x="365.33" y="358" text-anchor="middle">0.16</text>
<line class="grid" x1="513.00" y1="108" x2="513.00" y2="338"/>
<text class="label" x="513.00" y="358" text-anchor="middle">0.44</text>
<line class="grid" x1="660.67" y1="108" x2="660.67" y2="338"/>
<text class="label" x="660.67" y="358" text-anchor="middle">0.71</text>
<line class="grid" x1="808.33" y1="108" x2="808.33" y2="338"/>
<text class="label" x="808.33" y="358" text-anchor="middle">0.99</text>
<line class="grid" x1="956.00" y1="108" x2="956.00" y2="338"/>
<text class="label" x="956.00" y="358" text-anchor="middle">1.26</text>
<line x1="278.95" y1="108" x2="278.95" y2="338" stroke="#5a6675" stroke-width="1.2" opacity="0.55"/>
<text class="label" x="282.95" y="120.00" transform="rotate(-35 282.95 120.00)">start</text>
<line x1="599.33" y1="108" x2="599.33" y2="338" stroke="#5a6675" stroke-width="1.2" opacity="0.55"/>
<text class="label" x="603.33" y="120.00" transform="rotate(-35 603.33 120.00)">final target</text>
<line x1="742.85" y1="108" x2="742.85" y2="338" stroke="#347a3a" stroke-width="1.2" opacity="0.55"/>
<text class="label" x="746.85" y="120.00" transform="rotate(-35 746.85 120.00)">arrive</text>
<line x1="775.14" y1="108" x2="775.14" y2="338" stroke="#8a5a00" stroke-width="1.2" opacity="0.55"/>
<text class="label" x="779.14" y="142.00" transform="rotate(-35 779.14 142.00)">settled</text>
<path d="M 95.08,177.07 L 99.63,177.07 L 104.82,174.96 L 116.10,173.13 L 120.70,170.53 L 126.21,168.87 L 131.24,168.87 L 147.88,164.34 L 158.00,162.10 L 174.16,157.73 L 179.75,155.66 L 184.77,155.66 L 201.18,151.08 L 207.41,151.08 L 211.64,148.46 L 217.64,146.83 L 223.47,146.83 L 227.98,143.98 L 233.49,142.31 L 238.79,142.31 L 244.14,140.07 L 255.72,137.91 L 259.81,137.91 L 265.49,134.97 L 271.26,132.97 L 276.10,132.97 L 281.36,130.95 L 287.01,130.95 L 292.17,130.95 L 298.42,130.95 L 304.22,130.95 L 308.57,130.95 L 313.68,130.95 L 319.26,130.95 L 329.85,130.95 L 335.20,130.95 L 340.32,130.95 L 345.83,130.95 L 357.43,130.95 L 362.36,130.95 L 367.08,130.95 L 372.50,130.95 L 383.56,130.95 L 388.65,130.95 L 394.02,130.95 L 399.41,130.95 L 410.43,130.95 L 421.22,130.95 L 426.22,130.95 L 437.57,130.95 L 447.58,130.95 L 453.11,130.95 L 464.20,130.95 L 474.39,130.95 L 479.98,130.95 L 491.21,130.95 L 496.29,130.95 L 501.30,130.95 L 506.89,130.95 L 512.33,130.95 L 517.78,130.95 L 522.93,130.95 L 528.20,130.95 L 533.81,130.95 L 538.89,130.95 L 544.29,130.95 L 549.85,130.95 L 555.00,130.95 L 560.42,130.95 L 571.13,130.95 L 577.06,130.95 L 582.02,130.95 L 588.07,130.95 L 593.23,130.95 L 598.55,130.95 L 603.77,315.74 L 609.06,315.74 L 614.93,315.74 L 619.98,315.74 L 626.11,315.74 L 630.24,315.74 L 635.68,315.74 L 640.97,315.74 L 652.92,315.74 L 657.11,315.74 L 662.49,315.74 L 668.22,315.74 L 673.35,315.74 L 678.92,315.74 L 683.97,315.74 L 689.18,315.74 L 695.34,315.74 L 699.81,315.74 L 706.03,315.74 L 711.30,315.74 L 715.93,315.74 L 721.41,315.74 L 726.96,315.74 L 732.71,315.74 L 737.51,315.74 L 742.85,315.74 L 749.99,315.74 L 753.88,315.74 L 764.43,315.74 L 769.58,315.74 L 775.14,315.74 L 780.44,315.74 L 787.41,315.74 L 791.72,315.74 L 796.46,315.74 L 801.94,315.74 L 812.98,315.74 L 817.98,315.74 L 823.43,315.74 L 829.01,315.74 L 834.16,315.74 L 839.84,315.74 L 844.86,315.74 L 850.13,315.74 L 861.14,315.74 L 868.30,315.74 L 871.78,315.74 L 876.99,315.74 L 882.80,315.74 L 887.84,315.74 L 893.26,315.74 L 899.00,315.74 L 904.18,315.74 L 910.21,315.74 L 915.18,315.74 L 921.74,315.74 L 925.85,315.74 L 930.92,315.74" fill="none" stroke="#48525f" stroke-width="2" stroke-dasharray="6 4"/>
<path d="M 95.08,212.92 L 99.63,208.25 L 104.82,203.51 L 116.10,194.52 L 120.70,190.61 L 126.21,187.39 L 131.24,184.48 L 147.88,177.84 L 158.00,174.66 L 174.16,169.81 L 179.75,168.20 L 184.77,166.59 L 201.18,162.05 L 207.41,160.52 L 211.64,159.11 L 217.64,157.67 L 223.47,156.42 L 227.98,154.99 L 233.49,153.50 L 238.79,152.13 L 244.14,150.81 L 255.72,148.03 L 259.81,146.73 L 265.49,145.32 L 271.26,143.94 L 276.10,142.69 L 281.36,141.33 L 287.01,139.97 L 292.17,138.59 L 298.42,137.24 L 304.22,136.05 L 308.57,135.00 L 313.68,134.11 L 319.26,133.39 L 329.85,132.49 L 335.20,132.19 L 340.32,131.95 L 345.83,131.78 L 357.43,131.47 L 362.36,131.32 L 367.08,131.19 L 372.50,131.09 L 383.56,130.87 L 388.65,130.79 L 394.02,130.72 L 399.41,130.67 L 410.43,130.57 L 421.22,130.50 L 426.22,130.48 L 437.57,130.41 L 447.58,130.37 L 453.11,130.36 L 464.20,130.33 L 474.39,130.32 L 479.98,130.30 L 491.21,130.29 L 496.29,130.29 L 501.30,130.28 L 506.89,130.28 L 512.33,130.28 L 517.78,130.27 L 522.93,130.27 L 528.20,130.27 L 533.81,130.27 L 538.89,130.27 L 544.29,130.26 L 549.85,130.26 L 555.00,130.26 L 560.42,130.26 L 571.13,130.26 L 577.06,130.26 L 582.02,130.26 L 588.07,130.26 L 593.23,130.26 L 598.55,130.26 L 603.77,130.26 L 609.06,130.27 L 614.93,130.43 L 619.98,131.48 L 626.11,133.33 L 630.24,136.87 L 635.68,142.67 L 640.97,151.06 L 652.92,176.54 L 657.11,192.37 L 662.49,209.37 L 668.22,226.23 L 673.35,242.41 L 678.92,256.79 L 683.97,269.01 L 689.18,278.82 L 695.34,285.85 L 699.81,290.98 L 706.03,294.54 L 711.30,297.06 L 715.93,298.99 L 721.41,300.83 L 726.96,302.62 L 732.71,304.24 L 737.51,305.71 L 742.85,307.06 L 749.99,308.26 L 753.88,309.27 L 764.43,310.90 L 769.58,311.55 L 775.14,312.09 L 780.44,312.54 L 787.41,312.94 L 791.72,313.31 L 796.46,313.61 L 801.94,313.86 L 812.98,314.30 L 817.98,314.50 L 823.43,314.65 L 829.01,314.77 L 834.16,314.88 L 839.84,314.99 L 844.86,315.10 L 850.13,315.17 L 861.14,315.28 L 868.30,315.34 L 871.78,315.38 L 876.99,315.42 L 882.80,315.44 L 887.84,315.48 L 893.26,315.50 L 899.00,315.53 L 904.18,315.55 L 910.21,315.56 L 915.18,315.57 L 921.74,315.58 L 925.85,315.59 L 930.92,315.60" fill="none" stroke="#1769aa" stroke-width="2"/>
<line class="axis" x1="70" y1="338" x2="956" y2="338"/>
<line class="axis" x1="70" y1="108" x2="70" y2="338"/>
<text class="label" x="18" y="223.00" transform="rotate(-90 18 223.00)" text-anchor="middle">degrees</text>
<text class="label" x="513.0" y="374" text-anchor="middle">time relative to event (s)</text>
</svg>