<svg xmlns="http://www.w3.org/2000/svg" viewBox="0 0 980 382" role="img">
<style>
.axis{stroke:#718096;stroke-width:1}.grid{stroke:#e5eaf0;stroke-width:1}.label{font:12px sans-serif;fill:#5a6675}.title{font:700 18px sans-serif;fill:#20242a}.subtitle{font:12px sans-serif;fill:#5a6675}.panel-title{font:700 13px sans-serif;fill:#20242a}
</style>
<rect width="980" height="382" fill="#ffffff"/>
<text class="title" x="70" y="28">Pitch small angle movement: 1.00 deg to -1.00 deg (2.00 deg move).</text>
<text class="subtitle" x="70" y="50">Arrival 187 ms; settling 237 ms; trajectory lag 60 ms.</text>
<line x1="70" y1="76" x2="94" y2="76" stroke="#48525f" stroke-width="2" stroke-dasharray="6 4"/>
<text class="label" x="100" y="80">commanded target</text>
<line x1="236" y1="76" x2="260" y2="76" stroke="#1769aa" stroke-width="2"/>
<text class="label" x="266" y="80">actual current</text>
<text class="panel-title" x="70" y="96">Pitch position</text>
<line class="grid" x1="70" y1="338.00" x2="956" y2="338.00"/>
<text class="label" x="62" y="342.00" text-anchor="end">-1.2</text>
<line class="grid" x1="70" y1="280.50" x2="956" y2="280.50"/>
<text class="label" x="62" y="284.50" text-anchor="end">-0.6</text>
<line class="grid" x1="70" y1="223.00" x2="956" y2="223.00"/>
<text class="label" x="62" y="227.00" text-anchor="end">-0.0</text>
<line class="grid" x1="70" y1="165.50" x2="956" y2="165.50"/>
<text class="label" x="62" y="169.50" text-anchor="end">0.6</text>
<line class="grid" x1="70" y1="108.00" x2="956" y2="108.00"/>
<text class="label" x="62" y="112.00" text-anchor="end">1.2</text>
<line class="grid" x1="70.00" y1="108" x2="70.00" y2="338"/>
<text class="label" x="70.00" y="358" text-anchor="middle">-0.39</text>
<line class="grid" x1="217.67" y1="108" x2="217.67" y2="338"/>
<text class="label" x="217.67" y="358" text-anchor="middle">-0.09</text>
<line class="grid" x1="365.33" y1="108" x2="365.33" y2="338"/>
<text class="label" x="365.33" y="358" text-anchor="middle">0.21</text>
<line class="grid" x1="513.00" y1="108" x2="513.00" y2="338"/>
<text class="label" x="513.00" y="358" text-anchor="middle">0.52</text>
<line class="grid" x1="660.67" y1="108" x2="660.67" y2="338"/>
<text class="label" x="660.67" y="358" text-anchor="middle">0.82</text>
<line class="grid" x1="808.33" y1="108" x2="808.33" y2="338"/>
<text class="label" x="808.33" y="358" text-anchor="middle">1.12</text>
<line class="grid" x1="956.00" y1="108" x2="956.00" y2="338"/>
<text class="label" x="956.00" y="358" text-anchor="middle">1.42</text>
<line x1="261.43" y1="108" x2="261.43" y2="338" stroke="#5a6675" stroke-width="1.2" opacity="0.55"/>
<text class="label" x="265.43" y="120.00" transform="rotate(-35 265.43 120.00)">start</text>
<line x1="664.10" y1="108" x2="664.10" y2="338" stroke="#5a6675" stroke-width="1.2" opacity="0.55"/>
<text class="label" x="668.10" y="120.00" transform="rotate(-35 668.10 120.00)">final target</text>
<line x1="755.28" y1="108" x2="755.28" y2="338" stroke="#347a3a" stroke-width="1.2" opacity="0.55"/>
<text class="label" x="759.28" y="120.00" transform="rotate(-35 759.28 120.00)">arrive</text>
<line x1="779.87" y1="108" x2="779.87" y2="338" stroke="#8a5a00" stroke-width="1.2" opacity="0.55"/>
<text class="label" x="783.87" y="142.00" transform="rotate(-35 783.87 142.00)">settled</text>
<path d="M 95.08,222.75 L 99.93,222.75 L 105.14,222.75 L 110.30,222.75 L 115.02,222.75 L 121.07,222.75 L 124.70,222.75 L 129.51,222.75 L 134.61,222.75 L 139.10,222.75 L 144.25,222.75 L 150.31,222.75 L 153.72,222.75 L 158.86,222.75 L 163.48,222.75 L 168.41,222.75 L 173.50,222.75 L 178.35,222.75 L 183.13,222.75 L 187.94,222.75 L 192.79,222.75 L 197.71,222.75 L 202.59,222.75 L 207.65,222.75 L 212.55,222.75 L 217.36,222.75 L 222.17,222.75 L 227.05,222.75 L 231.97,222.75 L 236.99,222.75 L 241.89,222.75 L 246.71,222.75 L 251.67,222.75 L 256.37,222.75 L 261.56,130.26 L 266.07,130.26 L 271.12,130.26 L 275.85,130.26 L 280.86,130.26 L 285.70,130.26 L 290.59,130.26 L 295.52,130.26 L 300.40,130.26 L 305.32,130.26 L 310.11,130.26 L 319.86,130.26 L 324.75,130.26 L 329.65,130.26 L 334.51,130.26 L 340.15,130.26 L 344.70,130.26 L 349.15,130.26 L 354.32,130.26 L 359.15,130.26 L 364.22,130.26 L 369.05,130.26 L 373.83,130.26 L 378.56,130.26 L 383.34,130.26 L 388.38,130.26 L 398.30,130.26 L 407.99,130.26 L 414.34,130.26 L 417.79,130.26 L 422.47,130.26 L 427.42,130.26 L 432.25,130.26 L 438.24,130.26 L 447.14,130.26 L 452.25,130.26 L 456.83,130.26 L 462.67,130.26 L 467.02,130.26 L 471.52,130.26 L 476.31,130.26 L 481.23,130.26 L 486.68,130.26 L 491.53,130.26 L 495.90,130.26 L 505.83,130.26 L 511.00,130.26 L 515.58,130.26 L 520.59,130.26 L 525.46,130.26 L 530.18,130.26 L 534.98,130.26 L 544.69,130.26 L 549.88,130.26 L 554.65,130.26 L 560.63,130.26 L 564.42,130.26 L 569.24,130.26 L 574.10,130.26 L 579.07,130.26 L 584.50,130.26 L 594.00,130.26 L 598.59,130.26 L 603.46,130.26 L 608.55,130.26 L 613.32,130.26 L 618.03,130.26 L 623.22,130.26 L 627.93,130.26 L 633.04,130.26 L 638.30,130.26 L 642.47,130.26 L 647.36,130.26 L 652.29,130.26 L 657.43,130.26 L 662.12,130.26 L 667.30,315.24 L 672.14,315.24 L 676.76,315.24 L 682.52,315.24 L 691.32,315.24 L 696.52,315.24 L 701.40,315.24 L 706.93,315.24 L 711.74,315.24 L 715.83,315.24 L 721.15,315.24 L 725.62,315.24 L 730.81,315.24 L 740.47,315.24 L 745.46,315.24 L 750.25,315.24 L 755.28,315.24 L 760.90,315.24 L 764.72,315.24 L 769.69,315.24 L 774.46,315.24 L 779.87,315.24 L 785.33,315.24 L 789.16,315.24 L 794.20,315.24 L 798.93,315.24 L 809.01,315.24 L 813.59,315.24 L 818.72,315.24 L 823.62,315.24 L 828.19,315.24 L 833.58,315.24 L 838.07,315.24 L 842.94,315.24 L 847.78,315.24 L 853.11,315.24 L 858.21,315.24 L 862.78,315.24 L 867.44,315.24 L 872.38,315.24 L 877.29,315.24 L 881.97,315.24 L 886.95,315.24 L 891.88,315.24 L 896.67,315.24 L 901.71,315.24 L 911.36,315.24 L 916.23,315.24 L 921.10,315.24 L 926.11,315.24 L 930.92,315.24" fill="none" stroke="#48525f" stroke-width="2" stroke-dasharray="6 4"/>
<path d="M 95.08,222.68 L 99.93,222.84 L 105.14,222.84 L 110.30,222.51 L 115.02,222.34 L 121.07,222.51 L 124.70,222.51 L 129.51,222.34 L 134.61,222.34 L 139.10,222.51 L 144.25,222.34 L 150.31,222.34 L 153.72,222.51 L 158.86,222.34 L 163.48,222.34 L 168.41,222.34 L 173.50,222.34 L 178.35,222.34 L 183.13,222.34 L 187.94,222.34 L 192.79,222.34 L 197.71,222.34 L 202.59,222.34 L 207.65,222.34 L 212.55,222.34 L 217.36,222.34 L 222.17,222.34 L 227.05,222.34 L 231.97,222.51 L 236.99,222.34 L 241.89,222.34 L 246.71,222.34 L 251.67,222.34 L 256.37,222.34 L 261.56,222.51 L 266.07,222.34 L 271.12,221.68 L 275.85,217.35 L 280.86,208.36 L 285.70,196.21 L 290.59,183.55 L 295.52,170.73 L 300.40,159.25 L 305.32,151.09 L 310.11,146.59 L 319.86,143.10 L 324.75,141.60 L 329.65,140.60 L 334.51,139.93 L 340.15,139.10 L 344.70,137.93 L 349.15,136.94 L 354.32,136.10 L 359.15,135.44 L 364.22,134.77 L 369.05,134.11 L 373.83,133.61 L 378.56,133.27 L 383.34,132.94 L 388.38,132.61 L 398.30,132.11 L 407.99,131.61 L 414.34,131.44 L 417.79,131.28 L 422.47,131.28 L 427.42,131.11 L 432.25,130.94 L 438.24,130.94 L 447.14,130.78 L 452.25,130.78 L 456.83,130.78 L 462.67,130.61 L 467.02,130.61 L 471.52,130.61 L 476.31,130.61 L 481.23,130.61 L 486.68,130.44 L 491.53,130.44 L 495.90,130.44 L 505.83,130.44 L 511.00,130.44 L 515.58,130.44 L 520.59,130.44 L 525.46,130.44 L 530.18,130.44 L 534.98,130.44 L 544.69,130.44 L 549.88,130.44 L 554.65,130.44 L 560.63,130.44 L 564.42,130.44 L 569.24,130.44 L 574.10,130.44 L 579.07,130.44 L 584.50,130.44 L 594.00,130.44 L 598.59,130.44 L 603.46,130.44 L 608.55,130.44 L 613.32,130.44 L 618.03,130.44 L 623.22,130.44 L 627.93,130.44 L 633.04,130.44 L 638.30,130.44 L 642.47,130.44 L 647.36,130.44 L 652.29,130.44 L 657.43,130.44 L 662.12,130.44 L 667.30,130.44 L 672.14,130.61 L 676.76,133.11 L 682.52,142.76 L 691.32,180.56 L 696.52,204.03 L 701.40,230.00 L 706.93,252.48 L 711.74,269.96 L 715.83,281.11 L 721.15,286.77 L 725.62,289.27 L 730.81,291.27 L 740.47,295.26 L 745.46,297.26 L 750.25,299.26 L 755.28,301.42 L 760.90,303.26 L 764.72,304.75 L 769.69,306.09 L 774.46,307.42 L 779.87,308.58 L 785.33,309.58 L 789.16,310.25 L 794.20,310.91 L 798.93,311.58 L 809.01,312.75 L 813.59,313.08 L 818.72,313.41 L 823.62,313.74 L 828.19,314.08 L 833.58,314.41 L 838.07,314.41 L 842.94,314.74 L 847.78,314.91 L 853.11,315.08 L 858.21,315.24 L 862.78,315.24 L 867.44,315.24 L 872.38,315.41 L 877.29,315.58 L 881.97,315.58 L 886.95,315.58 L 891.88,315.58 L 896.67,315.58 L 901.71,315.74 L 911.36,315.74 L 916.23,315.74 L 921.10,315.74 L 926.11,315.74 L 930.92,315.74" fill="none" stroke="#1769aa" stroke-width="2"/>
<line class="axis" x1="70" y1="338" x2="956" y2="338"/>
<line class="axis" x1="70" y1="108" x2="70" y2="338"/>
<text class="label" x="18" y="223.00" transform="rotate(-90 18 223.00)" text-anchor="middle">degrees</text>
<text class="label" x="513.0" y="374" text-anchor="middle">time relative to event (s)</text>
</svg>