<svg xmlns="http://www.w3.org/2000/svg" viewBox="0 0 980 382" role="img">
<style>
.axis{stroke:#718096;stroke-width:1}.grid{stroke:#e5eaf0;stroke-width:1}.label{font:12px sans-serif;fill:#5a6675}.title{font:700 18px sans-serif;fill:#20242a}.subtitle{font:12px sans-serif;fill:#5a6675}.panel-title{font:700 13px sans-serif;fill:#20242a}
</style>
<rect width="980" height="382" fill="#ffffff"/>
<text class="title" x="70" y="28">Yaw small angle movement: -2.10 deg to -0.00 deg (2.10 deg move).</text>
<text class="subtitle" x="70" y="50">Arrival 88 ms; settling 138 ms; trajectory lag 45 ms.</text>
<line x1="70" y1="76" x2="94" y2="76" stroke="#48525f" stroke-width="2" stroke-dasharray="6 4"/>
<text class="label" x="100" y="80">commanded target</text>
<line x1="236" y1="76" x2="260" y2="76" stroke="#c94f2d" stroke-width="2"/>
<text class="label" x="266" y="80">actual current</text>
<text class="panel-title" x="70" y="96">Yaw position</text>
<line class="grid" x1="70" y1="338.00" x2="956" y2="338.00"/>
<text class="label" x="62" y="342.00" text-anchor="end">-2.4</text>
<line class="grid" x1="70" y1="280.50" x2="956" y2="280.50"/>
<text class="label" x="62" y="284.50" text-anchor="end">-1.7</text>
<line class="grid" x1="70" y1="223.00" x2="956" y2="223.00"/>
<text class="label" x="62" y="227.00" text-anchor="end">-1.0</text>
<line class="grid" x1="70" y1="165.50" x2="956" y2="165.50"/>
<text class="label" x="62" y="169.50" text-anchor="end">-0.3</text>
<line class="grid" x1="70" y1="108.00" x2="956" y2="108.00"/>
<text class="label" x="62" y="112.00" text-anchor="end">0.4</text>
<line class="grid" x1="70.00" y1="108" x2="70.00" y2="338"/>
<text class="label" x="70.00" y="358" text-anchor="middle">-0.40</text>
<line class="grid" x1="217.67" y1="108" x2="217.67" y2="338"/>
<text class="label" x="217.67" y="358" text-anchor="middle">-0.08</text>
<line class="grid" x1="365.33" y1="108" x2="365.33" y2="338"/>
<text class="label" x="365.33" y="358" text-anchor="middle">0.25</text>
<line class="grid" x1="513.00" y1="108" x2="513.00" y2="338"/>
<text class="label" x="513.00" y="358" text-anchor="middle">0.57</text>
<line class="grid" x1="660.67" y1="108" x2="660.67" y2="338"/>
<text class="label" x="660.67" y="358" text-anchor="middle">0.89</text>
<line class="grid" x1="808.33" y1="108" x2="808.33" y2="338"/>
<text class="label" x="808.33" y="358" text-anchor="middle">1.22</text>
<line class="grid" x1="956.00" y1="108" x2="956.00" y2="338"/>
<text class="label" x="956.00" y="358" text-anchor="middle">1.54</text>
<line x1="252.83" y1="108" x2="252.83" y2="338" stroke="#5a6675" stroke-width="1.2" opacity="0.55"/>
<text class="label" x="256.83" y="120.00" transform="rotate(-35 256.83 120.00)">start</text>
<line x1="680.66" y1="108" x2="680.66" y2="338" stroke="#5a6675" stroke-width="1.2" opacity="0.55"/>
<text class="label" x="684.66" y="120.00" transform="rotate(-35 684.66 120.00)">final target</text>
<line x1="720.61" y1="108" x2="720.61" y2="338" stroke="#347a3a" stroke-width="1.2" opacity="0.55"/>
<text class="label" x="724.61" y="120.00" transform="rotate(-35 724.61 120.00)">arrive</text>
<line x1="743.59" y1="108" x2="743.59" y2="338" stroke="#8a5a00" stroke-width="1.2" opacity="0.55"/>
<text class="label" x="747.59" y="142.00" transform="rotate(-35 747.59 142.00)">settled</text>
<path d="M 95.08,228.94 L 99.51,228.94 L 104.15,233.77 L 108.44,233.77 L 113.50,237.58 L 117.95,241.17 L 122.87,241.17 L 127.72,245.68 L 131.27,245.68 L 136.06,249.86 L 142.02,253.33 L 145.99,253.33 L 150.27,258.09 L 154.64,258.09 L 159.28,261.85 L 163.72,265.61 L 167.71,265.61 L 172.42,270.12 L 176.92,270.12 L 182.07,274.05 L 187.70,277.74 L 190.68,277.74 L 195.86,282.48 L 200.29,286.12 L 205.09,286.12 L 209.22,290.18 L 213.87,290.18 L 218.25,294.43 L 222.72,294.43 L 227.72,298.74 L 232.11,302.11 L 236.83,302.11 L 241.23,306.71 L 245.50,306.71 L 250.59,311.37 L 254.97,314.41 L 259.13,314.41 L 264.63,314.41 L 268.44,314.41 L 272.93,314.41 L 277.90,314.41 L 282.99,314.41 L 287.23,314.41 L 291.53,314.41 L 295.79,314.41 L 300.48,314.41 L 305.03,314.41 L 309.69,314.41 L 314.00,314.41 L 318.62,314.41 L 323.73,314.41 L 328.32,314.41 L 332.83,314.41 L 336.86,314.41 L 341.44,314.41 L 346.22,314.41 L 351.35,314.41 L 355.97,314.41 L 359.87,314.41 L 364.41,314.41 L 369.25,314.41 L 373.63,314.41 L 378.56,314.41 L 382.53,314.41 L 387.38,314.41 L 391.57,314.41 L 396.51,314.41 L 401.38,314.41 L 405.20,314.41 L 410.18,314.41 L 414.34,314.41 L 419.58,314.41 L 423.74,314.41 L 428.25,314.41 L 432.87,314.41 L 437.41,314.41 L 442.54,314.41 L 446.70,314.41 L 450.90,314.41 L 455.81,314.41 L 460.36,314.41 L 465.88,314.41 L 469.87,314.41 L 473.90,314.41 L 478.54,314.41 L 483.06,314.41 L 488.37,314.41 L 492.10,314.41 L 496.61,314.41 L 501.45,314.41 L 505.92,314.41 L 511.05,314.41 L 515.56,314.41 L 519.94,314.41 L 524.31,314.41 L 528.89,314.41 L 534.24,314.41 L 538.20,314.41 L 542.53,314.41 L 546.92,314.41 L 551.58,314.41 L 556.77,314.41 L 560.71,314.41 L 565.96,314.41 L 569.77,314.41 L 574.47,314.41 L 578.95,314.41 L 583.95,314.41 L 588.25,314.41 L 592.87,314.41 L 597.28,314.41 L 603.06,314.41 L 607.27,314.41 L 611.10,314.41 L 615.66,314.41 L 620.14,314.41 L 625.08,314.41 L 629.23,314.41 L 633.87,314.41 L 638.26,314.41 L 643.01,314.41 L 648.44,314.41 L 651.96,314.41 L 656.71,314.41 L 661.37,314.41 L 665.85,314.41 L 671.00,314.41 L 675.12,314.41 L 679.57,314.41 L 684.01,139.25 L 688.84,139.25 L 693.47,139.25 L 698.12,139.25 L 702.20,139.25 L 706.91,139.25 L 712.68,139.25 L 716.19,139.25 L 720.61,139.25 L 725.17,139.25 L 729.91,139.25 L 734.75,139.25 L 739.30,139.25 L 743.59,139.25 L 748.23,139.25 L 753.44,139.25 L 757.47,139.25 L 766.56,139.25 L 770.79,139.25 L 775.83,139.25 L 781.07,139.25 L 785.06,139.25 L 789.25,139.25 L 794.07,139.25 L 799.58,139.25 L 803.09,139.25 L 808.03,139.25 L 813.31,139.25 L 816.77,139.25 L 821.43,139.25 L 825.75,139.25 L 830.39,139.25 L 835.21,139.25 L 839.40,139.25 L 844.64,139.25 L 848.61,139.25 L 854.26,139.25 L 858.19,139.25 L 862.61,139.25 L 867.03,139.25 L 871.50,139.25 L 876.94,139.25 L 880.75,139.25 L 885.41,139.25 L 890.07,139.25 L 894.40,139.25 L 899.14,139.25 L 903.63,139.25 L 908.26,139.25 L 912.55,139.25 L 917.17,139.25 L 921.84,139.25 L 926.49,139.25 L 930.92,139.25" fill="none" stroke="#48525f" stroke-width="2" stroke-dasharray="6 4"/>
<path d="M 95.08,218.88 L 99.51,221.43 L 104.15,223.82 L 108.44,225.92 L 113.50,228.02 L 117.95,230.42 L 122.87,233.12 L 127.72,235.37 L 131.27,237.77 L 136.06,240.02 L 142.02,242.72 L 145.99,245.57 L 150.27,247.82 L 154.64,250.22 L 159.28,252.46 L 163.72,255.01 L 167.71,257.56 L 172.42,259.66 L 176.92,262.21 L 182.07,264.46 L 187.70,267.16 L 190.68,269.86 L 195.86,272.11 L 200.29,274.51 L 205.09,277.06 L 209.22,279.60 L 213.87,282.00 L 218.25,284.10 L 222.72,286.80 L 227.72,289.05 L 232.11,291.60 L 236.83,294.15 L 241.23,296.55 L 245.50,299.10 L 250.59,301.35 L 254.97,304.05 L 259.13,306.45 L 264.63,308.69 L 268.44,310.64 L 272.93,311.84 L 277.90,312.89 L 282.99,313.79 L 287.23,314.39 L 291.53,314.84 L 295.79,315.14 L 300.48,315.29 L 305.03,315.44 L 309.69,315.44 L 314.00,315.44 L 318.62,315.44 L 323.73,315.29 L 328.32,315.29 L 332.83,315.44 L 336.86,315.59 L 341.44,315.59 L 346.22,315.74 L 351.35,315.74 L 355.97,315.59 L 359.87,315.59 L 364.41,315.59 L 369.25,315.59 L 373.63,315.59 L 378.56,315.59 L 382.53,315.59 L 387.38,315.74 L 391.57,315.59 L 396.51,315.59 L 401.38,315.59 L 405.20,315.59 L 410.18,315.59 L 414.34,315.59 L 419.58,315.59 L 423.74,315.59 L 428.25,315.59 L 432.87,315.59 L 437.41,315.59 L 442.54,315.59 L 446.70,315.59 L 450.90,315.59 L 455.81,315.59 L 460.36,315.59 L 465.88,315.59 L 469.87,315.59 L 473.90,315.59 L 478.54,315.59 L 483.06,315.59 L 488.37,315.59 L 492.10,315.59 L 496.61,315.44 L 501.45,315.44 L 505.92,315.44 L 511.05,315.44 L 515.56,315.44 L 519.94,315.44 L 524.31,315.59 L 528.89,315.59 L 534.24,315.44 L 538.20,315.44 L 542.53,315.44 L 546.92,315.44 L 551.58,315.44 L 556.77,315.44 L 560.71,315.44 L 565.96,315.44 L 569.77,315.44 L 574.47,315.44 L 578.95,315.59 L 583.95,315.44 L 588.25,315.44 L 592.87,315.44 L 597.28,315.44 L 603.06,315.44 L 607.27,315.44 L 611.10,315.44 L 615.66,315.44 L 620.14,315.44 L 625.08,315.44 L 629.23,315.44 L 633.87,315.44 L 638.26,315.44 L 643.01,315.44 L 648.44,315.44 L 651.96,315.44 L 656.71,315.44 L 661.37,315.44 L 665.85,315.44 L 671.00,315.44 L 675.12,315.44 L 679.57,315.44 L 684.01,315.44 L 688.84,312.59 L 693.47,300.45 L 698.12,278.86 L 702.20,249.62 L 706.91,213.48 L 712.68,181.09 L 716.19,154.55 L 720.61,135.06 L 725.17,130.26 L 729.91,133.56 L 734.75,139.25 L 739.30,143.90 L 743.59,148.40 L 748.23,150.65 L 753.44,150.05 L 757.47,147.65 L 766.56,143.30 L 770.79,140.75 L 775.83,138.81 L 781.07,138.51 L 785.06,138.95 L 789.25,139.10 L 794.07,139.10 L 799.58,139.40 L 803.09,140.00 L 808.03,140.30 L 813.31,140.00 L 816.77,139.70 L 821.43,139.55 L 825.75,139.55 L 830.39,139.55 L 835.21,139.55 L 839.40,139.55 L 844.64,139.40 L 848.61,139.55 L 854.26,139.55 L 858.19,139.40 L 862.61,139.40 L 867.03,139.55 L 871.50,139.70 L 876.94,139.70 L 880.75,139.55 L 885.41,139.40 L 890.07,139.40 L 894.40,139.25 L 899.14,139.25 L 903.63,139.25 L 908.26,139.25 L 912.55,139.25 L 917.17,139.25 L 921.84,139.40 L 926.49,139.55 L 930.92,139.40" fill="none" stroke="#c94f2d" stroke-width="2"/>
<line class="axis" x1="70" y1="338" x2="956" y2="338"/>
<line class="axis" x1="70" y1="108" x2="70" y2="338"/>
<text class="label" x="18" y="223.00" transform="rotate(-90 18 223.00)" text-anchor="middle">degrees</text>
<text class="label" x="513.0" y="374" text-anchor="middle">time relative to event (s)</text>
</svg>