<svg xmlns="http://www.w3.org/2000/svg" viewBox="0 0 980 382" role="img">
<style>
.axis{stroke:#718096;stroke-width:1}.grid{stroke:#e5eaf0;stroke-width:1}.label{font:12px sans-serif;fill:#5a6675}.title{font:700 18px sans-serif;fill:#20242a}.subtitle{font:12px sans-serif;fill:#5a6675}.panel-title{font:700 13px sans-serif;fill:#20242a}
</style>
<rect width="980" height="382" fill="#ffffff"/>
<text class="title" x="70" y="28">Yaw large angle movement: 29.02 deg to -0.90 deg (29.92 deg move).</text>
<text class="subtitle" x="70" y="50">Arrival 176 ms; settling 226 ms; trajectory lag 400 ms.</text>
<line x1="70" y1="76" x2="94" y2="76" stroke="#48525f" stroke-width="2" stroke-dasharray="6 4"/>
<text class="label" x="100" y="80">commanded target</text>
<line x1="236" y1="76" x2="260" y2="76" stroke="#c94f2d" stroke-width="2"/>
<text class="label" x="266" y="80">actual current</text>
<text class="panel-title" x="70" y="96">Yaw position</text>
<line class="grid" x1="70" y1="338.00" x2="956" y2="338.00"/>
<text class="label" x="62" y="342.00" text-anchor="end">-4.5</text>
<line class="grid" x1="70" y1="280.50" x2="956" y2="280.50"/>
<text class="label" x="62" y="284.50" text-anchor="end">4.8</text>
<line class="grid" x1="70" y1="223.00" x2="956" y2="223.00"/>
<text class="label" x="62" y="227.00" text-anchor="end">14.2</text>
<line class="grid" x1="70" y1="165.50" x2="956" y2="165.50"/>
<text class="label" x="62" y="169.50" text-anchor="end">23.5</text>
<line class="grid" x1="70" y1="108.00" x2="956" y2="108.00"/>
<text class="label" x="62" y="112.00" text-anchor="end">32.9</text>
<line class="grid" x1="70.00" y1="108" x2="70.00" y2="338"/>
<text class="label" x="70.00" y="358" text-anchor="middle">-0.43</text>
<line class="grid" x1="217.67" y1="108" x2="217.67" y2="338"/>
<text class="label" x="217.67" y="358" text-anchor="middle">0.07</text>
<line class="grid" x1="365.33" y1="108" x2="365.33" y2="338"/>
<text class="label" x="365.33" y="358" text-anchor="middle">0.56</text>
<line class="grid" x1="513.00" y1="108" x2="513.00" y2="338"/>
<text class="label" x="513.00" y="358" text-anchor="middle">1.05</text>
<line class="grid" x1="660.67" y1="108" x2="660.67" y2="338"/>
<text class="label" x="660.67" y="358" text-anchor="middle">1.55</text>
<line class="grid" x1="808.33" y1="108" x2="808.33" y2="338"/>
<text class="label" x="808.33" y="358" text-anchor="middle">2.04</text>
<line class="grid" x1="956.00" y1="108" x2="956.00" y2="338"/>
<text class="label" x="956.00" y="358" text-anchor="middle">2.53</text>
<line x1="197.79" y1="108" x2="197.79" y2="338" stroke="#5a6675" stroke-width="1.2" opacity="0.55"/>
<text class="label" x="201.79" y="120.00" transform="rotate(-35 201.79 120.00)">start</text>
<line x1="767.44" y1="108" x2="767.44" y2="338" stroke="#5a6675" stroke-width="1.2" opacity="0.55"/>
<text class="label" x="771.44" y="120.00" transform="rotate(-35 771.44 120.00)">final target</text>
<line x1="819.98" y1="108" x2="819.98" y2="338" stroke="#347a3a" stroke-width="1.2" opacity="0.55"/>
<text class="label" x="823.98" y="120.00" transform="rotate(-35 823.98 120.00)">arrive</text>
<line x1="834.95" y1="108" x2="834.95" y2="338" stroke="#8a5a00" stroke-width="1.2" opacity="0.55"/>
<text class="label" x="838.95" y="142.00" transform="rotate(-35 838.95 142.00)">settled</text>
<path d="M 95.08,145.96 L 97.95,152.17 L 101.77,152.17 L 103.97,140.90 L 109.89,147.75 L 113.42,147.75 L 116.49,147.75 L 118.98,153.66 L 122.06,157.15 L 125.00,157.15 L 128.16,156.52 L 131.08,156.52 L 133.63,155.09 L 137.14,155.09 L 139.75,153.58 L 142.70,152.90 L 145.91,152.90 L 148.97,152.90 L 151.58,152.90 L 154.79,152.90 L 158.27,149.73 L 160.77,149.73 L 163.92,149.08 L 167.26,147.98 L 172.65,147.98 L 176.07,147.17 L 179.72,146.83 L 185.05,146.53 L 188.18,146.53 L 190.75,146.47 L 193.75,146.47 L 197.84,131.85 L 199.59,131.85 L 203.58,131.85 L 206.54,131.85 L 208.70,131.85 L 212.33,131.85 L 214.63,131.85 L 217.90,131.85 L 221.48,131.85 L 223.96,131.85 L 226.46,131.85 L 230.31,131.85 L 233.24,131.85 L 235.71,131.85 L 238.69,131.85 L 241.96,131.85 L 244.69,131.85 L 248.40,131.85 L 250.70,131.85 L 253.74,131.85 L 257.80,131.85 L 259.77,131.85 L 262.88,131.85 L 266.13,131.85 L 268.52,131.85 L 272.08,131.85 L 274.93,131.85 L 278.32,131.85 L 280.50,131.85 L 283.83,131.85 L 288.29,131.85 L 289.87,131.85 L 293.13,131.85 L 295.82,131.85 L 298.66,131.85 L 301.54,131.85 L 304.75,131.85 L 307.99,131.85 L 311.76,131.85 L 313.85,131.85 L 316.89,131.85 L 320.78,131.85 L 322.63,131.85 L 327.19,131.85 L 332.81,131.85 L 334.53,131.85 L 337.52,131.85 L 341.00,131.85 L 343.74,131.85 L 346.91,131.85 L 350.22,131.85 L 352.51,131.85 L 356.71,131.85 L 358.48,131.85 L 361.45,131.85 L 364.76,131.85 L 367.61,131.85 L 370.46,131.85 L 373.79,131.85 L 376.41,131.85 L 379.58,131.85 L 383.08,131.85 L 385.56,131.85 L 388.75,131.85 L 391.55,131.85 L 394.64,131.85 L 397.42,131.85 L 400.58,131.85 L 403.59,131.85 L 407.05,131.85 L 410.10,131.85 L 412.35,131.85 L 416.51,131.85 L 418.57,131.85 L 421.48,131.85 L 424.41,131.85 L 427.30,131.85 L 430.60,131.85 L 433.63,131.85 L 436.53,131.85 L 439.77,131.85 L 442.32,131.85 L 446.82,131.85 L 448.24,131.85 L 451.20,131.85 L 454.74,131.85 L 457.86,131.85 L 460.39,131.85 L 463.57,131.85 L 466.36,131.85 L 469.52,131.85 L 472.86,131.85 L 475.35,131.85 L 478.23,131.85 L 481.16,131.85 L 484.45,131.85 L 487.50,131.85 L 490.28,131.85 L 493.47,131.85 L 496.30,131.85 L 499.93,131.85 L 502.58,131.85 L 505.34,131.85 L 508.39,131.85 L 511.54,131.85 L 514.24,131.85 L 517.40,131.85 L 520.33,131.85 L 523.46,131.85 L 529.57,131.85 L 532.56,131.85 L 535.10,131.85 L 538.38,131.85 L 541.14,131.85 L 544.11,131.85 L 547.19,131.85 L 550.10,131.85 L 553.34,131.85 L 556.28,131.85 L 559.32,131.85 L 562.24,131.85 L 565.07,131.85 L 568.12,131.85 L 571.41,131.85 L 574.17,131.85 L 577.13,131.85 L 580.04,131.85 L 583.09,131.85 L 586.24,131.85 L 590.01,131.85 L 592.54,131.85 L 595.12,131.85 L 598.87,131.85 L 601.22,131.85 L 604.43,131.85 L 607.27,131.85 L 610.15,131.85 L 613.11,131.85 L 616.32,131.85 L 619.79,131.85 L 622.25,131.85 L 625.20,131.85 L 628.07,131.85 L 631.15,131.85 L 634.82,131.85 L 637.23,131.85 L 640.12,131.85 L 643.03,131.85 L 646.15,131.85 L 649.53,131.85 L 652.12,131.85 L 655.08,131.85 L 658.19,131.85 L 661.16,131.85 L 665.05,131.85 L 667.17,131.85 L 670.04,131.85 L 673.05,131.85 L 676.09,131.85 L 679.02,131.85 L 681.98,131.85 L 685.08,131.85 L 687.95,131.85 L 690.97,131.85 L 693.96,131.85 L 697.21,131.85 L 700.02,131.85 L 702.98,131.85 L 706.36,131.85 L 709.46,131.85 L 712.08,131.85 L 715.00,131.85 L 718.04,131.85 L 721.16,131.85 L 724.16,131.85 L 727.03,131.85 L 729.85,131.85 L 733.12,131.85 L 736.28,131.85 L 739.05,131.85 L 741.96,131.85 L 744.85,131.85 L 748.08,131.85 L 750.96,131.85 L 753.95,131.85 L 756.95,131.85 L 759.85,131.85 L 763.01,131.85 L 765.96,131.85 L 769.50,315.74 L 771.95,315.74 L 774.96,315.74 L 778.44,315.74 L 781.15,315.74 L 784.16,315.74 L 787.15,315.74 L 790.00,315.74 L 793.22,315.74 L 796.19,315.74 L 799.73,315.74 L 802.32,315.74 L 805.13,315.74 L 808.71,315.74 L 811.22,315.74 L 814.62,315.74 L 816.90,315.74 L 819.98,315.74 L 823.24,315.74 L 825.88,315.74 L 829.17,315.74 L 832.38,315.74 L 834.95,315.74 L 838.20,315.74 L 841.41,315.74 L 844.13,315.74 L 847.20,315.74 L 849.99,315.74 L 856.31,315.74 L 858.80,315.74 L 862.16,315.74 L 864.89,315.74 L 867.91,315.74 L 870.93,315.74 L 873.97,315.74 L 877.22,315.74 L 879.85,315.74 L 883.31,315.74 L 886.79,315.74 L 889.27,315.74 L 892.06,315.74 L 894.81,315.74 L 898.03,315.74 L 900.81,315.74 L 904.54,315.74 L 907.09,315.74 L 909.79,315.74 L 912.91,315.74 L 915.82,315.74 L 918.75,315.74 L 922.06,315.74 L 924.89,315.74 L 928.41,315.74 L 930.92,315.74" fill="none" stroke="#48525f" stroke-width="2" stroke-dasharray="6 4"/>
<path d="M 95.08,162.46 L 97.95,161.48 L 101.77,160.49 L 103.97,159.80 L 109.89,157.90 L 113.42,156.74 L 116.49,156.03 L 118.98,155.74 L 122.06,155.22 L 125.00,154.33 L 128.16,153.25 L 131.08,152.40 L 133.63,151.94 L 137.14,151.38 L 139.75,150.26 L 142.70,149.15 L 145.91,148.66 L 148.97,148.74 L 151.58,148.87 L 154.79,149.17 L 158.27,148.82 L 160.77,148.24 L 163.92,146.95 L 167.26,145.78 L 172.65,144.31 L 176.07,144.59 L 179.72,146.01 L 185.05,150.09 L 188.18,152.42 L 190.75,154.30 L 193.75,155.67 L 197.84,156.33 L 199.59,156.38 L 203.58,156.00 L 206.54,155.55 L 208.70,155.11 L 212.33,154.75 L 214.63,154.61 L 217.90,154.44 L 221.48,154.28 L 223.96,154.33 L 226.46,154.23 L 230.31,154.01 L 233.24,153.65 L 235.71,153.25 L 238.69,152.54 L 241.96,151.83 L 244.69,151.47 L 248.40,151.07 L 250.70,150.49 L 253.74,150.06 L 257.80,149.58 L 259.77,149.29 L 262.88,149.01 L 266.13,148.75 L 268.52,148.46 L 272.08,148.09 L 274.93,147.82 L 278.32,147.62 L 280.50,147.42 L 283.83,147.24 L 288.29,147.12 L 289.87,146.93 L 293.13,146.80 L 295.82,146.73 L 298.66,146.69 L 301.54,146.56 L 304.75,146.51 L 307.99,146.47 L 311.76,146.29 L 313.85,145.94 L 316.89,144.84 L 320.78,142.78 L 322.63,139.94 L 327.19,136.65 L 332.81,131.44 L 334.53,130.34 L 337.52,130.26 L 341.00,130.99 L 343.74,131.72 L 346.91,132.53 L 350.22,133.07 L 352.51,133.17 L 356.71,132.92 L 358.48,132.55 L 361.45,132.26 L 364.76,132.03 L 367.61,131.80 L 370.46,131.69 L 373.79,131.69 L 376.41,131.73 L 379.58,131.75 L 383.08,131.82 L 385.56,131.91 L 388.75,131.94 L 391.55,131.93 L 394.64,131.90 L 397.42,131.87 L 400.58,131.86 L 403.59,131.86 L 407.05,131.86 L 410.10,131.86 L 412.35,131.86 L 416.51,131.88 L 418.57,131.88 L 421.48,131.88 L 424.41,131.87 L 427.30,131.86 L 430.60,131.85 L 433.63,131.84 L 436.53,131.85 L 439.77,131.86 L 442.32,131.86 L 446.82,131.86 L 448.24,131.85 L 451.20,131.85 L 454.74,131.84 L 457.86,131.84 L 460.39,131.85 L 463.57,131.85 L 466.36,131.85 L 469.52,131.85 L 472.86,131.85 L 475.35,131.85 L 478.23,131.84 L 481.16,131.84 L 484.45,131.85 L 487.50,131.85 L 490.28,131.85 L 493.47,131.85 L 496.30,131.85 L 499.93,131.85 L 502.58,131.85 L 505.34,131.85 L 508.39,131.84 L 511.54,131.85 L 514.24,131.85 L 517.40,131.85 L 520.33,131.85 L 523.46,131.85 L 529.57,131.85 L 532.56,131.85 L 535.10,131.85 L 538.38,131.85 L 541.14,131.84 L 544.11,131.85 L 547.19,131.85 L 550.10,131.85 L 553.34,131.85 L 556.28,131.85 L 559.32,131.84 L 562.24,131.85 L 565.07,131.85 L 568.12,131.85 L 571.41,131.85 L 574.17,131.85 L 577.13,131.84 L 580.04,131.84 L 583.09,131.84 L 586.24,131.84 L 590.01,131.85 L 592.54,131.84 L 595.12,131.85 L 598.87,131.84 L 601.22,131.84 L 604.43,131.84 L 607.27,131.84 L 610.15,131.84 L 613.11,131.84 L 616.32,131.84 L 619.79,131.84 L 622.25,131.85 L 625.20,131.84 L 628.07,131.84 L 631.15,131.84 L 634.82,131.85 L 637.23,131.84 L 640.12,131.85 L 643.03,131.84 L 646.15,131.84 L 649.53,131.85 L 652.12,131.84 L 655.08,131.85 L 658.19,131.84 L 661.16,131.85 L 665.05,131.84 L 667.17,131.84 L 670.04,131.84 L 673.05,131.84 L 676.09,131.84 L 679.02,131.84 L 681.98,131.84 L 685.08,131.84 L 687.95,131.84 L 690.97,131.85 L 693.96,131.85 L 697.21,131.85 L 700.02,131.85 L 702.98,131.85 L 706.36,131.84 L 709.46,131.84 L 712.08,131.84 L 715.00,131.85 L 718.04,131.85 L 721.16,131.84 L 724.16,131.85 L 727.03,131.85 L 729.85,131.84 L 733.12,131.85 L 736.28,131.84 L 739.05,131.84 L 741.96,131.84 L 744.85,131.84 L 748.08,131.85 L 750.96,131.84 L 753.95,131.84 L 756.95,131.84 L 759.85,131.84 L 763.01,131.85 L 765.96,131.85 L 769.50,131.85 L 771.95,131.96 L 774.96,132.73 L 778.44,134.47 L 781.15,138.06 L 784.16,144.24 L 787.15,153.96 L 790.00,167.14 L 793.22,184.08 L 796.19,203.03 L 799.73,224.76 L 802.32,244.56 L 805.13,263.68 L 808.71,280.24 L 811.22,292.84 L 814.62,301.67 L 816.90,306.54 L 819.98,308.51 L 823.24,308.74 L 825.88,308.54 L 829.17,308.34 L 832.38,308.36 L 834.95,309.13 L 838.20,310.40 L 841.41,311.76 L 844.13,313.00 L 847.20,314.12 L 849.99,314.81 L 856.31,315.04 L 858.80,314.98 L 862.16,314.95 L 864.89,314.87 L 867.91,314.79 L 870.93,314.85 L 873.97,314.97 L 877.22,315.08 L 879.85,315.18 L 883.31,315.26 L 886.79,315.32 L 889.27,315.38 L 892.06,315.43 L 894.81,315.44 L 898.03,315.44 L 900.81,315.44 L 904.54,315.43 L 907.09,315.43 L 909.79,315.43 L 912.91,315.43 L 915.82,315.42 L 918.75,315.41 L 922.06,315.42 L 924.89,315.43 L 928.41,315.43 L 930.92,315.44" fill="none" stroke="#c94f2d" stroke-width="2"/>
<line class="axis" x1="70" y1="338" x2="956" y2="338"/>
<line class="axis" x1="70" y1="108" x2="70" y2="338"/>
<text class="label" x="18" y="223.00" transform="rotate(-90 18 223.00)" text-anchor="middle">degrees</text>
<text class="label" x="513.0" y="374" text-anchor="middle">time relative to event (s)</text>
</svg>