<svg xmlns="http://www.w3.org/2000/svg" viewBox="0 0 980 650" role="img">
<style>
.axis{stroke:#718096;stroke-width:1}.grid{stroke:#e5eaf0;stroke-width:1}.label{font:12px sans-serif;fill:#5a6675}.title{font:700 18px sans-serif;fill:#20242a}.subtitle{font:12px sans-serif;fill:#5a6675}.panel-title{font:700 13px sans-serif;fill:#20242a}
</style>
<rect width="980" height="650" fill="#ffffff"/>
<text class="title" x="70" y="28">Firing response, stable target, non-trivial disturbance: event 77, stable_target=1, valid_disturbance_shot=1, pitch peak 1.83 deg, yaw peak 1.73 deg.</text>
<text class="subtitle" x="70" y="50">Pitch peak 1.83 deg; yaw peak 1.73 deg; vector 2.52 deg.</text>
<line x1="70" y1="76" x2="94" y2="76" stroke="#48525f" stroke-width="2" stroke-dasharray="6 4"/>
<text class="label" x="100" y="80">pitch target</text>
<line x1="208" y1="76" x2="232" y2="76" stroke="#1769aa" stroke-width="2"/>
<text class="label" x="238" y="80">pitch actual</text>
<line x1="346" y1="76" x2="370" y2="76" stroke="#48525f" stroke-width="2" stroke-dasharray="6 4"/>
<text class="label" x="376" y="80">yaw target</text>
<line x1="476" y1="76" x2="500" y2="76" stroke="#c94f2d" stroke-width="2"/>
<text class="label" x="506" y="80">yaw actual</text>
<text class="panel-title" x="70" y="96">Pitch position</text>
<line class="grid" x1="70" y1="338.00" x2="956" y2="338.00"/>
<text class="label" x="62" y="342.00" text-anchor="end">-11.6</text>
<line class="grid" x1="70" y1="280.50" x2="956" y2="280.50"/>
<text class="label" x="62" y="284.50" text-anchor="end">-11.1</text>
<line class="grid" x1="70" y1="223.00" x2="956" y2="223.00"/>
<text class="label" x="62" y="227.00" text-anchor="end">-10.5</text>
<line class="grid" x1="70" y1="165.50" x2="956" y2="165.50"/>
<text class="label" x="62" y="169.50" text-anchor="end">-9.9</text>
<line class="grid" x1="70" y1="108.00" x2="956" y2="108.00"/>
<text class="label" x="62" y="112.00" text-anchor="end">-9.4</text>
<line class="grid" x1="70.00" y1="108" x2="70.00" y2="338"/>
<line class="grid" x1="217.67" y1="108" x2="217.67" y2="338"/>
<line class="grid" x1="365.33" y1="108" x2="365.33" y2="338"/>
<line class="grid" x1="513.00" y1="108" x2="513.00" y2="338"/>
<line class="grid" x1="660.67" y1="108" x2="660.67" y2="338"/>
<line class="grid" x1="808.33" y1="108" x2="808.33" y2="338"/>
<line class="grid" x1="956.00" y1="108" x2="956.00" y2="338"/>
<line x1="268.94" y1="108" x2="268.94" y2="338" stroke="#20242a" stroke-width="1.2" opacity="0.55"/>
<text class="label" x="272.94" y="120.00" transform="rotate(-35 272.94 120.00)">fire</text>
<line x1="388.09" y1="108" x2="388.09" y2="338" stroke="#1769aa" stroke-width="1.2" opacity="0.55"/>
<text class="label" x="392.09" y="120.00" transform="rotate(-35 392.09 120.00)">pitch peak</text>
<line x1="503.87" y1="108" x2="503.87" y2="338" stroke="#1769aa" stroke-width="1.2" opacity="0.55"/>
<text class="label" x="507.87" y="142.00" transform="rotate(-35 507.87 142.00)">pitch recovered</text>
<line x1="334.54" y1="108" x2="334.54" y2="338" stroke="#c94f2d" stroke-width="1.2" opacity="0.55"/>
<text class="label" x="338.54" y="120.00" transform="rotate(-35 338.54 120.00)">yaw peak</text>
<line x1="425.54" y1="108" x2="425.54" y2="338" stroke="#c94f2d" stroke-width="1.2" opacity="0.55"/>
<text class="label" x="429.54" y="142.00" transform="rotate(-35 429.54 142.00)">yaw recovered</text>
<path d="M 95.08,130.77 L 111.86,130.77 L 121.05,130.77 L 130.44,130.77 L 147.66,130.77 L 156.57,130.77 L 165.74,130.77 L 174.41,130.77 L 183.55,130.77 L 192.53,130.77 L 203.05,130.77 L 210.73,130.77 L 229.76,130.77 L 236.95,130.77 L 245.81,130.77 L 255.18,130.77 L 263.71,130.77 L 273.12,130.77 L 282.57,130.77 L 299.61,130.77 L 308.56,130.77 L 317.70,130.77 L 326.16,130.77 L 334.17,130.77 L 343.83,130.77 L 352.69,130.77 L 361.17,130.77 L 370.09,130.77 L 379.01,130.77 L 388.09,130.77 L 396.81,130.77 L 405.43,130.77 L 414.48,130.77 L 423.51,130.77 L 432.96,130.77 L 451.31,130.77 L 459.13,130.77 L 467.72,130.77 L 477.38,130.77 L 487.20,130.77 L 503.87,130.77 L 512.24,130.77 L 521.25,130.77 L 531.32,130.77 L 539.46,130.77 L 548.49,130.77 L 556.80,130.77 L 565.74,130.77 L 574.64,130.77 L 583.86,130.77 L 592.56,130.77 L 601.16,130.77 L 610.92,130.77 L 630.06,130.77 L 637.46,130.77 L 646.24,130.77 L 654.96,130.77 L 663.48,130.77 L 674.07,130.77 L 681.35,130.77 L 690.49,130.77 L 699.60,130.77 L 708.88,130.77 L 717.12,130.77 L 725.73,130.77 L 734.40,130.77 L 744.19,130.77 L 752.32,130.77 L 778.77,130.77 L 788.57,130.77 L 797.14,130.77 L 806.01,130.77 L 814.54,130.77 L 823.24,130.77 L 832.29,130.77 L 841.13,130.77 L 851.42,130.77 L 886.22,130.77 L 895.37,130.77 L 903.88,130.77 L 912.18,130.77 L 921.20,130.77 L 930.92,130.77" fill="none" stroke="#48525f" stroke-width="2" stroke-dasharray="6 4"/>
<path d="M 95.08,130.26 L 111.86,130.26 L 121.05,130.26 L 130.44,130.26 L 147.66,130.26 L 156.57,130.26 L 165.74,130.26 L 174.41,130.26 L 183.55,130.44 L 192.53,130.26 L 203.05,130.44 L 210.73,130.44 L 229.76,130.44 L 236.95,130.44 L 245.81,130.44 L 255.18,130.44 L 263.71,130.44 L 273.12,130.44 L 282.57,130.62 L 299.61,130.62 L 308.56,130.81 L 317.70,232.41 L 326.16,247.03 L 334.17,233.51 L 343.83,228.03 L 352.69,197.14 L 361.17,216.70 L 370.09,260.92 L 379.01,307.15 L 388.09,315.74 L 396.81,309.35 L 405.43,294.54 L 414.48,264.57 L 423.51,239.72 L 432.96,218.52 L 451.31,166.44 L 459.13,146.16 L 467.72,139.40 L 477.38,139.58 L 487.20,145.97 L 503.87,151.64 L 512.24,149.81 L 521.25,146.70 L 531.32,144.51 L 539.46,143.60 L 548.49,143.42 L 556.80,142.68 L 565.74,141.77 L 574.64,140.86 L 583.86,139.94 L 592.56,138.66 L 601.16,137.75 L 610.92,137.02 L 630.06,135.74 L 637.46,135.01 L 646.24,134.28 L 654.96,133.91 L 663.48,133.55 L 674.07,133.18 L 681.35,132.63 L 690.49,132.27 L 699.60,132.09 L 708.88,131.90 L 717.12,131.54 L 725.73,131.54 L 734.40,131.17 L 744.19,130.99 L 752.32,130.99 L 778.77,130.62 L 788.57,130.62 L 797.14,130.62 L 806.01,130.62 L 814.54,130.44 L 823.24,130.44 L 832.29,130.44 L 841.13,130.44 L 851.42,130.44 L 886.22,130.44 L 895.37,130.44 L 903.88,130.44 L 912.18,130.44 L 921.20,130.44 L 930.92,130.44" fill="none" stroke="#1769aa" stroke-width="2"/>
<line class="axis" x1="70" y1="338" x2="956" y2="338"/>
<line class="axis" x1="70" y1="108" x2="70" y2="338"/>
<text class="label" x="18" y="223.00" transform="rotate(-90 18 223.00)" text-anchor="middle">degrees</text>
<text class="panel-title" x="70" y="364">Yaw position</text>
<line class="grid" x1="70" y1="606.00" x2="956" y2="606.00"/>
<text class="label" x="62" y="610.00" text-anchor="end">1.3</text>
<line class="grid" x1="70" y1="548.50" x2="956" y2="548.50"/>
<text class="label" x="62" y="552.50" text-anchor="end">1.8</text>
<line class="grid" x1="70" y1="491.00" x2="956" y2="491.00"/>
<text class="label" x="62" y="495.00" text-anchor="end">2.4</text>
<line class="grid" x1="70" y1="433.50" x2="956" y2="433.50"/>
<text class="label" x="62" y="437.50" text-anchor="end">2.9</text>
<line class="grid" x1="70" y1="376.00" x2="956" y2="376.00"/>
<text class="label" x="62" y="380.00" text-anchor="end">3.5</text>
<line class="grid" x1="70.00" y1="376" x2="70.00" y2="606"/>
<text class="label" x="70.00" y="626" text-anchor="middle">-0.22</text>
<line class="grid" x1="217.67" y1="376" x2="217.67" y2="606"/>
<text class="label" x="217.67" y="626" text-anchor="middle">-0.06</text>
<line class="grid" x1="365.33" y1="376" x2="365.33" y2="606"/>
<text class="label" x="365.33" y="626" text-anchor="middle">0.11</text>
<line class="grid" x1="513.00" y1="376" x2="513.00" y2="606"/>
<text class="label" x="513.00" y="626" text-anchor="middle">0.28</text>
<line class="grid" x1="660.67" y1="376" x2="660.67" y2="606"/>
<text class="label" x="660.67" y="626" text-anchor="middle">0.44</text>
<line class="grid" x1="808.33" y1="376" x2="808.33" y2="606"/>
<text class="label" x="808.33" y="626" text-anchor="middle">0.61</text>
<line class="grid" x1="956.00" y1="376" x2="956.00" y2="606"/>
<text class="label" x="956.00" y="626" text-anchor="middle">0.77</text>
<line x1="268.94" y1="376" x2="268.94" y2="606" stroke="#20242a" stroke-width="1.2" opacity="0.55"/>
<line x1="388.09" y1="376" x2="388.09" y2="606" stroke="#1769aa" stroke-width="1.2" opacity="0.55"/>
<line x1="503.87" y1="376" x2="503.87" y2="606" stroke="#1769aa" stroke-width="1.2" opacity="0.55"/>
<line x1="334.54" y1="376" x2="334.54" y2="606" stroke="#c94f2d" stroke-width="1.2" opacity="0.55"/>
<line x1="425.54" y1="376" x2="425.54" y2="606" stroke="#c94f2d" stroke-width="1.2" opacity="0.55"/>
<path d="M 104.74,404.32 L 112.23,404.32 L 121.54,404.32 L 139.94,404.32 L 148.18,404.32 L 156.96,404.32 L 166.24,404.32 L 174.85,404.32 L 184.89,404.32 L 193.97,404.32 L 201.25,404.32 L 210.27,404.32 L 219.49,404.32 L 236.53,404.32 L 245.40,404.32 L 254.69,404.32 L 263.31,404.32 L 274.28,404.32 L 282.03,404.32 L 291.08,404.32 L 299.11,404.32 L 307.99,404.32 L 334.54,404.32 L 343.38,404.32 L 352.27,404.32 L 363.93,404.32 L 371.38,404.32 L 388.58,404.32 L 397.28,404.32 L 407.74,404.32 L 415.70,404.32 L 425.54,404.32 L 432.55,404.32 L 441.75,404.32 L 450.36,404.32 L 468.12,404.32 L 476.90,404.32 L 485.95,404.32 L 495.30,404.32 L 504.40,404.32 L 512.66,404.32 L 521.78,404.32 L 530.63,404.32 L 539.00,404.32 L 549.21,404.32 L 557.32,404.32 L 566.28,404.32 L 575.07,404.32 L 585.15,404.32 L 593.52,404.32 L 601.67,404.32 L 612.59,404.32 L 619.33,404.32 L 627.73,404.32 L 636.71,404.32 L 645.41,404.32 L 654.35,404.32 L 665.83,404.32 L 672.58,404.32 L 689.89,404.32 L 707.99,404.32 L 718.36,404.32 L 726.39,404.32 L 735.28,404.32 L 743.40,404.32 L 754.35,404.32 L 761.18,404.32 L 770.24,404.32 L 779.17,404.32 L 787.79,404.32 L 796.67,404.32 L 815.11,404.32 L 823.66,404.32 L 832.85,404.32 L 842.54,404.32 L 853.83,404.32 L 859.18,404.32 L 868.09,404.32 L 876.88,404.32 L 885.62,404.32 L 896.34,404.32 L 903.34,404.32 L 912.58,404.32 L 921.63,404.32" fill="none" stroke="#48525f" stroke-width="2" stroke-dasharray="6 4"/>
<path d="M 104.74,404.40 L 112.23,404.40 L 121.54,404.40 L 139.94,404.40 L 148.18,404.40 L 156.96,404.40 L 166.24,404.40 L 174.85,404.40 L 184.89,404.40 L 193.97,404.40 L 201.25,404.40 L 210.27,404.40 L 219.49,404.40 L 236.53,404.40 L 245.40,404.40 L 254.69,404.40 L 263.31,404.40 L 274.28,404.40 L 282.03,404.40 L 291.08,404.40 L 299.11,404.40 L 307.99,404.59 L 334.54,583.74 L 343.38,538.86 L 352.27,505.90 L 363.93,465.67 L 371.38,434.39 L 388.58,415.95 L 397.28,413.90 L 407.74,405.71 L 415.70,416.88 L 425.54,424.89 L 432.55,425.08 L 441.75,419.86 L 450.36,413.53 L 468.12,399.75 L 476.90,398.26 L 485.95,399.38 L 495.30,401.24 L 504.40,402.91 L 512.66,405.33 L 521.78,407.76 L 530.63,408.31 L 539.00,407.76 L 549.21,406.82 L 557.32,406.27 L 566.28,405.89 L 575.07,405.52 L 585.15,405.15 L 593.52,404.96 L 601.67,404.96 L 612.59,404.78 L 619.33,404.78 L 627.73,404.59 L 636.71,404.59 L 645.41,404.78 L 654.35,405.15 L 665.83,404.96 L 672.58,404.78 L 689.89,404.40 L 707.99,404.40 L 718.36,404.22 L 726.39,404.40 L 735.28,404.40 L 743.40,404.59 L 754.35,404.59 L 761.18,404.40 L 770.24,404.40 L 779.17,404.40 L 787.79,404.22 L 796.67,404.40 L 815.11,404.40 L 823.66,404.40 L 832.85,404.40 L 842.54,404.40 L 853.83,404.40 L 859.18,404.40 L 868.09,404.40 L 876.88,404.40 L 885.62,404.40 L 896.34,404.40 L 903.34,404.40 L 912.58,404.40 L 921.63,404.40" fill="none" stroke="#c94f2d" stroke-width="2"/>
<line class="axis" x1="70" y1="606" x2="956" y2="606"/>
<line class="axis" x1="70" y1="376" x2="70" y2="606"/>
<text class="label" x="18" y="491.00" transform="rotate(-90 18 491.00)" text-anchor="middle">degrees</text>
<text class="label" x="513.0" y="642" text-anchor="middle">time relative to event (s)</text>
</svg>