<svg xmlns="http://www.w3.org/2000/svg" viewBox="0 0 980 650" role="img">
<style>
.axis{stroke:#718096;stroke-width:1}.grid{stroke:#e5eaf0;stroke-width:1}.label{font:12px sans-serif;fill:#5a6675}.title{font:700 18px sans-serif;fill:#20242a}.subtitle{font:12px sans-serif;fill:#5a6675}.panel-title{font:700 13px sans-serif;fill:#20242a}
</style>
<rect width="980" height="650" fill="#ffffff"/>
<text class="title" x="70" y="28">Firing response, not-stable target: event 138, stable_target=0, valid_disturbance_shot=0, pitch peak 3.03 deg, yaw peak 1.87 deg.</text>
<text class="subtitle" x="70" y="50">Pitch peak 3.03 deg; yaw peak 1.87 deg; vector 3.56 deg.</text>
<line x1="70" y1="76" x2="94" y2="76" stroke="#48525f" stroke-width="2" stroke-dasharray="6 4"/>
<text class="label" x="100" y="80">pitch target</text>
<line x1="208" y1="76" x2="232" y2="76" stroke="#1769aa" stroke-width="2"/>
<text class="label" x="238" y="80">pitch actual</text>
<line x1="346" y1="76" x2="370" y2="76" stroke="#48525f" stroke-width="2" stroke-dasharray="6 4"/>
<text class="label" x="376" y="80">yaw target</text>
<line x1="476" y1="76" x2="500" y2="76" stroke="#c94f2d" stroke-width="2"/>
<text class="label" x="506" y="80">yaw actual</text>
<text class="panel-title" x="70" y="96">Pitch position</text>
<line class="grid" x1="70" y1="338.00" x2="956" y2="338.00"/>
<text class="label" x="62" y="342.00" text-anchor="end">-4.0</text>
<line class="grid" x1="70" y1="280.50" x2="956" y2="280.50"/>
<text class="label" x="62" y="284.50" text-anchor="end">-1.1</text>
<line class="grid" x1="70" y1="223.00" x2="956" y2="223.00"/>
<text class="label" x="62" y="227.00" text-anchor="end">1.9</text>
<line class="grid" x1="70" y1="165.50" x2="956" y2="165.50"/>
<text class="label" x="62" y="169.50" text-anchor="end">4.8</text>
<line class="grid" x1="70" y1="108.00" x2="956" y2="108.00"/>
<text class="label" x="62" y="112.00" text-anchor="end">7.8</text>
<line class="grid" x1="70.00" y1="108" x2="70.00" y2="338"/>
<line class="grid" x1="217.67" y1="108" x2="217.67" y2="338"/>
<line class="grid" x1="365.33" y1="108" x2="365.33" y2="338"/>
<line class="grid" x1="513.00" y1="108" x2="513.00" y2="338"/>
<line class="grid" x1="660.67" y1="108" x2="660.67" y2="338"/>
<line class="grid" x1="808.33" y1="108" x2="808.33" y2="338"/>
<line class="grid" x1="956.00" y1="108" x2="956.00" y2="338"/>
<line x1="271.18" y1="108" x2="271.18" y2="338" stroke="#20242a" stroke-width="1.2" opacity="0.55"/>
<text class="label" x="275.18" y="120.00" transform="rotate(-35 275.18 120.00)">fire</text>
<line x1="307.22" y1="108" x2="307.22" y2="338" stroke="#6b7280" stroke-width="1.2" opacity="0.55"/>
<text class="label" x="311.22" y="120.00" transform="rotate(-35 311.22 120.00)">muzzle</text>
<line x1="405.84" y1="108" x2="405.84" y2="338" stroke="#6b7280" stroke-width="1.2" opacity="0.55"/>
<text class="label" x="409.84" y="120.00" transform="rotate(-35 409.84 120.00)">impact</text>
<line x1="423.97" y1="108" x2="423.97" y2="338" stroke="#1769aa" stroke-width="1.2" opacity="0.55"/>
<text class="label" x="427.97" y="120.00" transform="rotate(-35 427.97 120.00)">pitch peak</text>
<line x1="567.05" y1="108" x2="567.05" y2="338" stroke="#1769aa" stroke-width="1.2" opacity="0.55"/>
<text class="label" x="571.05" y="142.00" transform="rotate(-35 571.05 142.00)">pitch recovered</text>
<line x1="343.67" y1="108" x2="343.67" y2="338" stroke="#c94f2d" stroke-width="1.2" opacity="0.55"/>
<text class="label" x="347.67" y="120.00" transform="rotate(-35 347.67 120.00)">yaw peak</text>
<line x1="459.58" y1="108" x2="459.58" y2="338" stroke="#c94f2d" stroke-width="1.2" opacity="0.55"/>
<text class="label" x="463.58" y="142.00" transform="rotate(-35 463.58 142.00)">yaw recovered</text>
<path d="M 95.08,260.48 L 104.15,260.48 L 112.92,258.20 L 123.75,258.20 L 131.68,255.97 L 139.90,253.40 L 149.88,253.40 L 156.88,253.71 L 175.05,250.71 L 184.17,252.49 L 201.51,255.30 L 221.79,254.30 L 228.10,251.16 L 239.98,251.16 L 247.48,247.98 L 255.60,247.98 L 265.68,243.27 L 272.64,238.66 L 284.39,238.66 L 293.02,234.42 L 300.77,231.87 L 309.48,231.87 L 317.28,227.74 L 328.72,227.74 L 337.73,223.75 L 344.25,222.44 L 356.74,222.44 L 361.91,222.44 L 372.89,222.44 L 380.45,235.73 L 390.43,235.73 L 397.71,220.11 L 406.04,199.63 L 414.74,199.63 L 423.97,182.47 L 435.54,182.47 L 441.54,182.47 L 453.24,175.70 L 468.86,175.70 L 477.35,175.70 L 486.00,175.70 L 496.14,164.11 L 503.48,164.11 L 513.34,176.64 L 521.11,176.64 L 531.03,172.99 L 540.68,180.82 L 548.08,180.82 L 557.18,180.82 L 567.05,180.82 L 575.53,180.81 L 584.47,180.81 L 594.20,180.81 L 602.19,180.81 L 610.83,180.81 L 619.43,180.81 L 627.96,171.01 L 647.63,169.24 L 654.64,169.24 L 664.54,169.24 L 674.49,165.75 L 683.39,163.98 L 690.88,163.98 L 699.36,163.98 L 718.89,160.97 L 727.16,160.97 L 734.72,159.95 L 743.71,159.95 L 752.95,157.64 L 761.86,154.96 L 770.50,154.96 L 779.61,153.33 L 791.21,149.92 L 797.25,149.92 L 806.22,149.92 L 814.89,149.92 L 824.43,149.92 L 832.75,149.92 L 841.62,149.92 L 850.86,149.92 L 858.87,149.92 L 867.93,149.92 L 876.98,136.71 L 890.69,136.71 L 894.41,134.41 L 913.41,134.41 L 922.55,131.60 L 930.92,130.26" fill="none" stroke="#48525f" stroke-width="2" stroke-dasharray="6 4"/>
<path d="M 95.08,315.74 L 104.15,314.34 L 112.92,312.67 L 123.75,310.22 L 131.68,305.92 L 139.90,299.91 L 149.88,292.47 L 156.88,284.96 L 175.05,271.47 L 184.17,266.93 L 201.51,261.93 L 221.79,260.11 L 228.10,259.76 L 239.98,259.38 L 247.48,258.68 L 255.60,257.95 L 265.68,256.90 L 272.64,255.53 L 284.39,253.65 L 293.02,251.52 L 300.77,249.38 L 309.48,247.29 L 317.28,265.81 L 328.72,266.02 L 337.73,260.67 L 344.25,256.16 L 356.74,248.58 L 361.91,248.37 L 372.89,251.27 L 380.45,256.86 L 390.43,262.70 L 397.71,264.24 L 406.04,263.12 L 414.74,256.97 L 423.97,249.94 L 435.54,243.02 L 441.54,232.86 L 453.24,222.55 L 468.86,208.05 L 477.35,202.56 L 486.00,198.16 L 496.14,194.91 L 503.48,191.90 L 513.34,188.83 L 521.11,185.12 L 531.03,181.98 L 540.68,180.13 L 548.08,179.01 L 557.18,178.10 L 567.05,177.82 L 575.53,178.20 L 584.47,178.90 L 594.20,179.46 L 602.19,179.60 L 610.83,179.67 L 619.43,179.74 L 627.96,179.74 L 647.63,179.53 L 654.64,179.11 L 664.54,178.27 L 674.49,177.26 L 683.39,175.97 L 690.88,174.50 L 699.36,173.10 L 718.89,170.27 L 727.16,168.87 L 734.72,167.44 L 743.71,166.29 L 752.95,165.35 L 761.86,164.44 L 770.50,163.35 L 779.61,162.20 L 791.21,161.15 L 797.25,160.00 L 806.22,158.71 L 814.89,157.31 L 824.43,155.88 L 832.75,154.69 L 841.62,153.67 L 850.86,152.77 L 858.87,152.07 L 867.93,151.58 L 876.98,151.23 L 890.69,150.95 L 894.41,150.53 L 913.41,147.70 L 922.55,145.50 L 930.92,143.26" fill="none" stroke="#1769aa" stroke-width="2"/>
<line class="axis" x1="70" y1="338" x2="956" y2="338"/>
<line class="axis" x1="70" y1="108" x2="70" y2="338"/>
<text class="label" x="18" y="223.00" transform="rotate(-90 18 223.00)" text-anchor="middle">degrees</text>
<text class="panel-title" x="70" y="364">Yaw position</text>
<line class="grid" x1="70" y1="606.00" x2="956" y2="606.00"/>
<text class="label" x="62" y="610.00" text-anchor="end">-10.8</text>
<line class="grid" x1="70" y1="548.50" x2="956" y2="548.50"/>
<text class="label" x="62" y="552.50" text-anchor="end">-8.6</text>
<line class="grid" x1="70" y1="491.00" x2="956" y2="491.00"/>
<text class="label" x="62" y="495.00" text-anchor="end">-6.4</text>
<line class="grid" x1="70" y1="433.50" x2="956" y2="433.50"/>
<text class="label" x="62" y="437.50" text-anchor="end">-4.1</text>
<line class="grid" x1="70" y1="376.00" x2="956" y2="376.00"/>
<text class="label" x="62" y="380.00" text-anchor="end">-1.9</text>
<line class="grid" x1="70.00" y1="376" x2="70.00" y2="606"/>
<text class="label" x="70.00" y="626" text-anchor="middle">-0.23</text>
<line class="grid" x1="217.67" y1="376" x2="217.67" y2="606"/>
<text class="label" x="217.67" y="626" text-anchor="middle">-0.06</text>
<line class="grid" x1="365.33" y1="376" x2="365.33" y2="606"/>
<text class="label" x="365.33" y="626" text-anchor="middle">0.11</text>
<line class="grid" x1="513.00" y1="376" x2="513.00" y2="606"/>
<text class="label" x="513.00" y="626" text-anchor="middle">0.27</text>
<line class="grid" x1="660.67" y1="376" x2="660.67" y2="606"/>
<text class="label" x="660.67" y="626" text-anchor="middle">0.44</text>
<line class="grid" x1="808.33" y1="376" x2="808.33" y2="606"/>
<text class="label" x="808.33" y="626" text-anchor="middle">0.61</text>
<line class="grid" x1="956.00" y1="376" x2="956.00" y2="606"/>
<text class="label" x="956.00" y="626" text-anchor="middle">0.77</text>
<line x1="271.18" y1="376" x2="271.18" y2="606" stroke="#20242a" stroke-width="1.2" opacity="0.55"/>
<line x1="307.22" y1="376" x2="307.22" y2="606" stroke="#6b7280" stroke-width="1.2" opacity="0.55"/>
<line x1="405.84" y1="376" x2="405.84" y2="606" stroke="#6b7280" stroke-width="1.2" opacity="0.55"/>
<line x1="423.97" y1="376" x2="423.97" y2="606" stroke="#1769aa" stroke-width="1.2" opacity="0.55"/>
<line x1="567.05" y1="376" x2="567.05" y2="606" stroke="#1769aa" stroke-width="1.2" opacity="0.55"/>
<line x1="343.67" y1="376" x2="343.67" y2="606" stroke="#c94f2d" stroke-width="1.2" opacity="0.55"/>
<line x1="459.58" y1="376" x2="459.58" y2="606" stroke="#c94f2d" stroke-width="1.2" opacity="0.55"/>
<path d="M 113.50,427.31 L 131.18,427.20 L 157.40,423.80 L 167.90,423.80 L 174.55,424.69 L 195.73,424.10 L 202.08,424.08 L 210.81,424.08 L 220.81,424.57 L 230.10,424.53 L 237.83,424.53 L 246.89,423.76 L 254.69,423.76 L 265.08,422.31 L 273.98,420.57 L 281.62,420.57 L 290.61,418.62 L 299.52,417.32 L 308.46,417.32 L 320.05,416.10 L 326.86,416.10 L 335.28,416.10 L 343.67,414.39 L 355.14,414.39 L 361.15,414.39 L 370.50,414.39 L 379.39,398.26 L 388.12,398.26 L 408.55,406.69 L 418.33,406.69 L 424.65,411.92 L 433.10,411.92 L 441.15,411.92 L 451.12,410.94 L 459.58,410.94 L 468.24,410.94 L 476.91,410.94 L 486.51,410.94 L 495.17,409.26 L 503.95,409.26 L 515.53,430.43 L 521.47,430.43 L 530.52,430.84 L 539.28,446.00 L 548.51,446.00 L 557.68,446.00 L 565.83,446.00 L 575.03,461.82 L 583.34,461.82 L 592.94,461.82 L 601.59,461.82 L 610.38,461.82 L 629.24,467.86 L 638.06,467.86 L 645.79,467.86 L 655.05,483.98 L 663.81,483.98 L 673.07,502.80 L 681.99,504.80 L 690.25,504.80 L 699.92,504.80 L 708.80,517.50 L 716.90,519.87 L 728.67,519.87 L 735.28,526.93 L 744.65,529.61 L 752.35,529.61 L 763.28,534.32 L 772.52,536.66 L 780.31,536.66 L 788.34,540.29 L 796.73,540.29 L 808.05,540.29 L 816.27,540.29 L 823.82,540.29 L 832.23,540.29 L 842.69,540.29 L 852.03,540.29 L 859.31,540.29 L 868.48,540.29 L 876.54,558.97 L 886.74,558.97 L 894.78,569.50 L 903.93,569.50 L 912.57,569.50 L 921.46,573.83 L 930.41,583.74" fill="none" stroke="#48525f" stroke-width="2" stroke-dasharray="6 4"/>
<path d="M 113.50,432.95 L 131.18,431.36 L 157.40,427.63 L 167.90,426.60 L 174.55,425.62 L 195.73,424.26 L 202.08,424.03 L 210.81,423.98 L 220.81,424.07 L 230.10,424.17 L 237.83,424.21 L 246.89,424.31 L 254.69,424.26 L 265.08,424.31 L 273.98,424.12 L 281.62,423.84 L 290.61,423.14 L 299.52,422.49 L 308.46,421.36 L 320.05,443.56 L 326.86,451.64 L 335.28,459.77 L 343.67,462.76 L 355.14,451.50 L 361.15,439.59 L 370.50,430.48 L 379.39,425.80 L 388.12,419.50 L 408.55,414.45 L 418.33,413.66 L 424.65,411.69 L 433.10,408.05 L 441.15,406.65 L 451.12,405.81 L 459.58,406.51 L 468.24,408.42 L 476.91,410.01 L 486.51,411.27 L 495.17,412.44 L 503.95,413.09 L 515.53,412.91 L 521.47,412.16 L 530.52,412.91 L 539.28,414.31 L 548.51,416.55 L 557.68,421.74 L 565.83,428.28 L 575.03,434.87 L 583.34,441.13 L 592.94,448.23 L 601.59,453.70 L 610.38,457.62 L 629.24,460.61 L 638.06,460.66 L 645.79,461.69 L 655.05,462.06 L 663.81,463.27 L 673.07,466.64 L 681.99,470.98 L 690.25,476.22 L 699.92,481.36 L 708.80,487.94 L 716.90,494.95 L 728.67,501.82 L 735.28,507.24 L 744.65,511.96 L 752.35,516.86 L 763.28,521.49 L 772.52,524.57 L 780.31,527.05 L 788.34,529.11 L 796.73,530.79 L 808.05,532.98 L 816.27,534.43 L 823.82,535.79 L 832.23,537.10 L 842.69,538.22 L 852.03,539.01 L 859.31,539.62 L 868.48,540.23 L 876.54,540.69 L 886.74,540.93 L 894.78,543.08 L 903.93,545.09 L 912.57,547.94 L 921.46,551.53 L 930.41,556.11" fill="none" stroke="#c94f2d" stroke-width="2"/>
<line class="axis" x1="70" y1="606" x2="956" y2="606"/>
<line class="axis" x1="70" y1="376" x2="70" y2="606"/>
<text class="label" x="18" y="491.00" transform="rotate(-90 18 491.00)" text-anchor="middle">degrees</text>
<text class="label" x="513.0" y="642" text-anchor="middle">time relative to event (s)</text>
</svg>