<svg xmlns="http://www.w3.org/2000/svg" viewBox="0 0 980 650" role="img">
<style>
.axis{stroke:#718096;stroke-width:1}.grid{stroke:#e5eaf0;stroke-width:1}.label{font:12px sans-serif;fill:#5a6675}.title{font:700 18px sans-serif;fill:#20242a}.subtitle{font:12px sans-serif;fill:#5a6675}.panel-title{font:700 13px sans-serif;fill:#20242a}
</style>
<rect width="980" height="650" fill="#ffffff"/>
<text class="title" x="70" y="28">Firing response, stable target, trivial disturbance: event 38, stable_target=1, valid_disturbance_shot=0, pitch peak 0.00 deg, yaw peak 0.00 deg.</text>
<text class="subtitle" x="70" y="50">Pitch peak 0.00 deg; yaw peak 0.00 deg; vector 0.00 deg.</text>
<line x1="70" y1="76" x2="94" y2="76" stroke="#48525f" stroke-width="2" stroke-dasharray="6 4"/>
<text class="label" x="100" y="80">pitch target</text>
<line x1="208" y1="76" x2="232" y2="76" stroke="#1769aa" stroke-width="2"/>
<text class="label" x="238" y="80">pitch actual</text>
<line x1="346" y1="76" x2="370" y2="76" stroke="#48525f" stroke-width="2" stroke-dasharray="6 4"/>
<text class="label" x="376" y="80">yaw target</text>
<line x1="476" y1="76" x2="500" y2="76" stroke="#c94f2d" stroke-width="2"/>
<text class="label" x="506" y="80">yaw actual</text>
<text class="panel-title" x="70" y="96">Pitch position</text>
<line class="grid" x1="70" y1="338.00" x2="956" y2="338.00"/>
<text class="label" x="62" y="342.00" text-anchor="end">-2.1</text>
<line class="grid" x1="70" y1="280.50" x2="956" y2="280.50"/>
<text class="label" x="62" y="284.50" text-anchor="end">-2.1</text>
<line class="grid" x1="70" y1="223.00" x2="956" y2="223.00"/>
<text class="label" x="62" y="227.00" text-anchor="end">-2.0</text>
<line class="grid" x1="70" y1="165.50" x2="956" y2="165.50"/>
<text class="label" x="62" y="169.50" text-anchor="end">-1.9</text>
<line class="grid" x1="70" y1="108.00" x2="956" y2="108.00"/>
<text class="label" x="62" y="112.00" text-anchor="end">-1.9</text>
<line class="grid" x1="70.00" y1="108" x2="70.00" y2="338"/>
<line class="grid" x1="217.67" y1="108" x2="217.67" y2="338"/>
<line class="grid" x1="365.33" y1="108" x2="365.33" y2="338"/>
<line class="grid" x1="513.00" y1="108" x2="513.00" y2="338"/>
<line class="grid" x1="660.67" y1="108" x2="660.67" y2="338"/>
<line class="grid" x1="808.33" y1="108" x2="808.33" y2="338"/>
<line class="grid" x1="956.00" y1="108" x2="956.00" y2="338"/>
<line x1="270.08" y1="108" x2="270.08" y2="338" stroke="#20242a" stroke-width="1.2" opacity="0.55"/>
<text class="label" x="274.08" y="120.00" transform="rotate(-35 274.08 120.00)">fire</text>
<line x1="290.99" y1="108" x2="290.99" y2="338" stroke="#1769aa" stroke-width="1.2" opacity="0.55"/>
<text class="label" x="294.99" y="120.00" transform="rotate(-35 294.99 120.00)">pitch peak</text>
<line x1="343.82" y1="108" x2="343.82" y2="338" stroke="#1769aa" stroke-width="1.2" opacity="0.55"/>
<text class="label" x="347.82" y="142.00" transform="rotate(-35 347.82 142.00)">pitch recovered</text>
<line x1="272.96" y1="108" x2="272.96" y2="338" stroke="#c94f2d" stroke-width="1.2" opacity="0.55"/>
<text class="label" x="276.96" y="120.00" transform="rotate(-35 276.96 120.00)">yaw peak</text>
<line x1="318.21" y1="108" x2="318.21" y2="338" stroke="#c94f2d" stroke-width="1.2" opacity="0.55"/>
<text class="label" x="322.21" y="142.00" transform="rotate(-35 322.21 142.00)">yaw recovered</text>
<path d="M 95.08,226.57 L 105.31,226.57 L 122.11,226.57 L 130.07,226.57 L 139.26,226.57 L 148.22,226.57 L 157.15,226.57 L 165.90,226.57 L 174.89,226.57 L 185.95,226.57 L 194.19,226.57 L 201.16,226.57 L 210.69,226.57 L 219.73,226.57 L 229.31,226.57 L 237.51,226.57 L 247.89,226.57 L 255.20,226.57 L 263.50,226.57 L 272.52,226.57 L 281.66,226.57 L 290.99,226.57 L 299.93,226.57 L 308.09,226.57 L 317.50,226.57 L 326.49,226.57 L 335.25,226.57 L 343.82,226.57 L 353.15,226.57 L 362.04,226.57 L 372.73,226.57 L 380.34,226.57 L 388.62,226.57 L 398.07,226.57 L 408.95,226.57 L 415.45,226.57 L 423.80,226.57 L 432.92,226.57 L 441.59,226.57 L 452.89,226.57 L 459.67,226.57 L 469.12,226.57 L 477.26,226.57 L 485.79,226.57 L 495.61,226.57 L 503.69,226.57 L 513.16,226.57 L 521.50,226.57 L 530.51,226.57 L 540.06,226.57 L 548.01,226.57 L 557.41,226.57 L 565.98,226.57 L 574.74,226.57 L 583.88,226.57 L 592.65,226.57 L 602.11,226.57 L 610.37,226.57 L 619.24,226.57 L 629.01,226.57 L 637.48,226.57 L 646.44,226.57 L 655.34,226.57 L 664.07,226.57 L 672.88,226.57 L 681.89,226.57 L 692.85,226.57 L 700.20,226.57 L 708.62,226.57 L 717.86,226.57 L 726.81,226.57 L 734.85,226.57 L 743.93,226.57 L 752.72,226.57 L 763.48,226.57 L 770.59,226.57 L 780.47,226.57 L 788.42,226.57 L 797.12,226.57 L 808.99,226.57 L 815.11,226.57 L 824.14,226.57 L 832.98,226.57 L 841.55,226.57 L 851.41,226.57 L 859.56,226.57 L 868.21,226.57 L 877.49,226.57 L 886.27,226.57 L 896.49,226.57 L 906.20,226.57 L 913.16,226.57 L 921.90,226.57 L 930.92,226.57" fill="none" stroke="#48525f" stroke-width="2" stroke-dasharray="6 4"/>
<path d="M 95.08,221.44 L 105.31,221.44 L 122.11,221.44 L 130.07,221.44 L 139.26,221.44 L 148.22,221.44 L 157.15,221.44 L 165.90,221.44 L 174.89,221.44 L 185.95,221.44 L 194.19,221.44 L 201.16,221.44 L 210.69,221.44 L 219.73,221.44 L 229.31,221.44 L 237.51,221.44 L 247.89,221.44 L 255.20,221.44 L 263.50,221.44 L 272.52,221.44 L 281.66,221.44 L 290.99,223.45 L 299.93,221.44 L 308.09,219.43 L 317.50,219.43 L 326.49,219.43 L 335.25,221.44 L 343.82,221.44 L 353.15,219.43 L 362.04,219.43 L 372.73,221.44 L 380.34,221.44 L 388.62,221.44 L 398.07,219.43 L 408.95,221.44 L 415.45,219.43 L 423.80,219.43 L 432.92,221.44 L 441.59,219.43 L 452.89,219.43 L 459.67,219.43 L 469.12,221.44 L 477.26,219.43 L 485.79,219.43 L 495.61,219.43 L 503.69,219.43 L 513.16,219.43 L 521.50,221.44 L 530.51,219.43 L 540.06,219.43 L 548.01,219.43 L 557.41,219.43 L 565.98,221.44 L 574.74,219.43 L 583.88,219.43 L 592.65,219.43 L 602.11,219.43 L 610.37,219.43 L 619.24,221.44 L 629.01,219.43 L 637.48,221.44 L 646.44,221.44 L 655.34,219.43 L 664.07,219.43 L 672.88,221.44 L 681.89,219.43 L 692.85,219.43 L 700.20,221.44 L 708.62,221.44 L 717.86,221.44 L 726.81,219.43 L 734.85,219.43 L 743.93,219.43 L 752.72,221.44 L 763.48,219.43 L 770.59,219.43 L 780.47,219.43 L 788.42,219.43 L 797.12,221.44 L 808.99,221.44 L 815.11,219.43 L 824.14,219.43 L 832.98,219.43 L 841.55,219.43 L 851.41,221.44 L 859.56,221.44 L 868.21,219.43 L 877.49,221.44 L 886.27,219.43 L 896.49,221.44 L 906.20,219.43 L 913.16,219.43 L 921.90,219.43 L 930.92,221.44" fill="none" stroke="#1769aa" stroke-width="2"/>
<line class="axis" x1="70" y1="338" x2="956" y2="338"/>
<line class="axis" x1="70" y1="108" x2="70" y2="338"/>
<text class="label" x="18" y="223.00" transform="rotate(-90 18 223.00)" text-anchor="middle">degrees</text>
<text class="panel-title" x="70" y="364">Yaw position</text>
<line class="grid" x1="70" y1="606.00" x2="956" y2="606.00"/>
<text class="label" x="62" y="610.00" text-anchor="end">-0.1</text>
<line class="grid" x1="70" y1="548.50" x2="956" y2="548.50"/>
<text class="label" x="62" y="552.50" text-anchor="end">-0.0</text>
<line class="grid" x1="70" y1="491.00" x2="956" y2="491.00"/>
<text class="label" x="62" y="495.00" text-anchor="end">0.0</text>
<line class="grid" x1="70" y1="433.50" x2="956" y2="433.50"/>
<text class="label" x="62" y="437.50" text-anchor="end">0.1</text>
<line class="grid" x1="70" y1="376.00" x2="956" y2="376.00"/>
<text class="label" x="62" y="380.00" text-anchor="end">0.1</text>
<line class="grid" x1="70.00" y1="376" x2="70.00" y2="606"/>
<text class="label" x="70.00" y="626" text-anchor="middle">-0.23</text>
<line class="grid" x1="217.67" y1="376" x2="217.67" y2="606"/>
<text class="label" x="217.67" y="626" text-anchor="middle">-0.06</text>
<line class="grid" x1="365.33" y1="376" x2="365.33" y2="606"/>
<text class="label" x="365.33" y="626" text-anchor="middle">0.11</text>
<line class="grid" x1="513.00" y1="376" x2="513.00" y2="606"/>
<text class="label" x="513.00" y="626" text-anchor="middle">0.27</text>
<line class="grid" x1="660.67" y1="376" x2="660.67" y2="606"/>
<text class="label" x="660.67" y="626" text-anchor="middle">0.44</text>
<line class="grid" x1="808.33" y1="376" x2="808.33" y2="606"/>
<text class="label" x="808.33" y="626" text-anchor="middle">0.61</text>
<line class="grid" x1="956.00" y1="376" x2="956.00" y2="606"/>
<text class="label" x="956.00" y="626" text-anchor="middle">0.77</text>
<line x1="270.08" y1="376" x2="270.08" y2="606" stroke="#20242a" stroke-width="1.2" opacity="0.55"/>
<line x1="290.99" y1="376" x2="290.99" y2="606" stroke="#1769aa" stroke-width="1.2" opacity="0.55"/>
<line x1="343.82" y1="376" x2="343.82" y2="606" stroke="#1769aa" stroke-width="1.2" opacity="0.55"/>
<line x1="272.96" y1="376" x2="272.96" y2="606" stroke="#c94f2d" stroke-width="1.2" opacity="0.55"/>
<line x1="318.21" y1="376" x2="318.21" y2="606" stroke="#c94f2d" stroke-width="1.2" opacity="0.55"/>
<path d="M 97.38,490.66 L 103.89,490.66 L 112.79,490.66 L 121.36,490.66 L 130.48,490.66 L 139.93,490.66 L 150.06,490.66 L 156.72,490.66 L 166.52,490.66 L 174.49,490.66 L 183.58,490.66 L 193.01,490.66 L 201.53,490.66 L 211.25,490.66 L 219.32,490.66 L 231.00,490.66 L 237.08,490.66 L 246.94,490.66 L 254.73,490.66 L 263.89,490.66 L 272.96,490.66 L 282.15,490.66 L 290.55,490.66 L 299.37,490.66 L 308.50,490.66 L 318.21,490.66 L 326.02,490.66 L 335.72,490.66 L 344.30,490.66 L 352.69,490.66 L 361.55,490.66 L 370.84,490.66 L 379.71,490.66 L 389.24,490.66 L 406.57,490.66 L 415.04,490.66 L 425.28,490.66 L 433.45,490.66 L 442.00,490.66 L 451.18,490.66 L 459.20,490.66 L 468.33,490.66 L 478.03,490.66 L 486.18,490.66 L 494.91,490.66 L 504.19,490.66 L 512.68,490.66 L 521.94,490.66 L 530.96,490.66 L 541.95,490.66 L 548.38,490.66 L 557.03,490.66 L 566.42,490.66 L 575.13,490.66 L 584.39,490.66 L 593.11,490.66 L 601.65,490.66 L 610.80,490.66 L 619.63,490.66 L 628.50,490.66 L 637.07,490.66 L 648.13,490.66 L 654.90,490.66 L 673.40,490.66 L 682.31,490.66 L 690.82,490.66 L 699.63,490.66 L 708.21,490.66 L 717.32,490.66 L 727.31,490.66 L 735.23,490.66 L 744.38,490.66 L 753.96,490.66 L 762.07,490.66 L 770.96,490.66 L 779.38,490.66 L 789.00,490.66 L 797.50,490.66 L 806.86,490.66 L 817.09,490.66 L 824.81,490.66 L 833.51,490.66 L 841.93,490.66 L 851.99,490.66 L 861.33,490.66 L 868.60,490.66 L 878.60,490.66 L 886.83,490.66 L 895.74,490.66 L 904.81,490.66 L 912.75,490.66 L 922.48,490.66 L 930.54,490.66" fill="none" stroke="#48525f" stroke-width="2" stroke-dasharray="6 4"/>
<path d="M 97.38,492.03 L 103.89,489.97 L 112.79,489.97 L 121.36,492.03 L 130.48,492.03 L 139.93,492.03 L 150.06,492.03 L 156.72,489.97 L 166.52,492.03 L 174.49,492.03 L 183.58,492.03 L 193.01,489.97 L 201.53,492.03 L 211.25,489.97 L 219.32,489.97 L 231.00,489.97 L 237.08,492.03 L 246.94,489.97 L 254.73,489.97 L 263.89,492.03 L 272.96,492.03 L 282.15,489.97 L 290.55,492.03 L 299.37,489.97 L 308.50,489.97 L 318.21,492.03 L 326.02,489.97 L 335.72,489.97 L 344.30,492.03 L 352.69,489.97 L 361.55,492.03 L 370.84,492.03 L 379.71,489.97 L 389.24,489.97 L 406.57,489.97 L 415.04,492.03 L 425.28,492.03 L 433.45,489.97 L 442.00,489.97 L 451.18,492.03 L 459.20,492.03 L 468.33,489.97 L 478.03,492.03 L 486.18,489.97 L 494.91,492.03 L 504.19,492.03 L 512.68,492.03 L 521.94,489.97 L 530.96,489.97 L 541.95,489.97 L 548.38,492.03 L 557.03,489.97 L 566.42,489.97 L 575.13,489.97 L 584.39,489.97 L 593.11,489.97 L 601.65,489.97 L 610.80,489.97 L 619.63,489.97 L 628.50,492.03 L 637.07,492.03 L 648.13,492.03 L 654.90,492.03 L 673.40,489.97 L 682.31,489.97 L 690.82,492.03 L 699.63,489.97 L 708.21,489.97 L 717.32,489.97 L 727.31,489.97 L 735.23,492.03 L 744.38,489.97 L 753.96,489.97 L 762.07,492.03 L 770.96,489.97 L 779.38,492.03 L 789.00,489.97 L 797.50,492.03 L 806.86,489.97 L 817.09,489.97 L 824.81,489.97 L 833.51,489.97 L 841.93,489.97 L 851.99,492.03 L 861.33,489.97 L 868.60,492.03 L 878.60,492.03 L 886.83,492.03 L 895.74,492.03 L 904.81,492.03 L 912.75,489.97 L 922.48,492.03 L 930.54,489.97" fill="none" stroke="#c94f2d" stroke-width="2"/>
<line class="axis" x1="70" y1="606" x2="956" y2="606"/>
<line class="axis" x1="70" y1="376" x2="70" y2="606"/>
<text class="label" x="18" y="491.00" transform="rotate(-90 18 491.00)" text-anchor="middle">degrees</text>
<text class="label" x="513.0" y="642" text-anchor="middle">time relative to event (s)</text>
</svg>